<?xml version="1.0" encoding="UTF-8"?>
<svg version="1.1" xmlns="http://www.w3.org/2000/svg" width="512" height="512">
<path d="M0 0 C0.73250977 -0.00700928 1.46501953 -0.01401855 2.21972656 -0.02124023 C4.62604382 -0.03875584 7.03117209 -0.02722142 9.4375 -0.01367188 C11.11849186 -0.01636866 12.79948221 -0.02025264 14.48046875 -0.02526855 C17.99754743 -0.03115485 21.5142188 -0.02262896 25.03125 -0.00390625 C29.53052189 0.01888312 34.02883927 0.00575532 38.52807617 -0.01819611 C41.99746847 -0.03267779 45.46663594 -0.02803731 48.93603516 -0.01768494 C50.59456496 -0.01502418 52.25311544 -0.01826444 53.91162109 -0.02760315 C56.23329421 -0.03780834 58.55344011 -0.02221466 60.875 0 C62.19371094 0.00318237 63.51242188 0.00636475 64.87109375 0.00964355 C70.38187882 0.79450037 73.25795176 3.0427517 76.69232178 7.33685303 C78.54662609 10.71646904 79.49140277 13.65809983 80.36035156 17.40917969 C80.5169928 18.07008606 80.67363403 18.73099243 80.83502197 19.41192627 C81.34452164 21.57478753 81.83650122 23.74121532 82.328125 25.90820312 C82.68012181 27.41964887 83.0331449 28.93085593 83.387146 30.4418335 C84.31218914 34.40379672 85.22207432 38.3690959 86.12915039 42.33520508 C86.87410784 45.58050945 87.62994031 48.82323449 88.38632584 52.06589127 C89.28724785 55.9291489 90.18338538 59.79350949 91.078125 63.65820312 C91.24923042 64.39673775 91.42033585 65.13527237 91.59662628 65.89618683 C92.0777345 67.97806153 92.55559363 70.06065143 93.03222656 72.14355469 C93.30440002 73.32902893 93.57657349 74.51450317 93.85699463 75.73590088 C94.4375 78.51757812 94.4375 78.51757812 94.4375 80.51757812 C95.34141448 80.51204737 95.34141448 80.51204737 96.26358986 80.50640488 C110.93649577 80.4180102 125.60938594 80.35184732 140.2824955 80.31032944 C147.3783691 80.28971721 154.47406481 80.26162254 161.56982422 80.21582031 C168.41681988 80.17164495 175.26363054 80.14844428 182.11075974 80.13806915 C184.72386968 80.13067476 187.33696944 80.11623544 189.95000076 80.0946579 C193.6083289 80.06564836 197.26589187 80.06162128 200.92431641 80.06347656 C202.0061319 80.04909546 203.08794739 80.03471436 204.20254517 80.01989746 C210.2895042 80.05333018 213.80366342 80.45798586 218.4375 84.51757812 C222.06583663 88.33687985 222.74750458 91.40036819 222.9375 96.51757812 C222.74750458 101.63478806 222.06583663 104.6982764 218.4375 108.51757812 C213.01501616 113.17997942 208.47102304 113.06896659 201.65869141 112.97167969 C200.58492249 112.97226379 199.51115356 112.9728479 198.40484619 112.97344971 C194.86591949 112.97066944 191.32784155 112.93957869 187.7890625 112.90820312 C185.33141541 112.90074057 182.87376235 112.89504771 180.41610718 112.89105225 C173.9551341 112.87579727 167.49452207 112.83651592 161.03369141 112.79223633 C154.4378752 112.75128112 147.84200052 112.73304065 141.24609375 112.71289062 C128.30974201 112.67002213 115.37364023 112.60254337 102.4375 112.51757812 C102.59173494 113.16875044 102.74596989 113.81992275 102.90487862 114.49082756 C106.68821451 130.46411558 110.47071276 146.4376017 114.25232124 162.41129875 C116.08122697 170.13659832 117.91039825 177.86183481 119.74023438 185.58691406 C121.33836482 192.33379704 122.93595665 199.0808073 124.53294742 205.82796013 C125.37560495 209.38803938 126.21850091 212.94806171 127.06204605 216.50793076 C129.19486221 225.50934807 131.32029523 234.51247329 133.4375 243.51757812 C133.73463646 244.77918007 134.03177292 246.04078201 134.33791351 247.34061432 C135.19504405 250.98613124 136.04732332 254.63274568 136.89794922 258.27978516 C137.15583284 259.37488844 137.41371647 260.46999172 137.67941475 261.59827995 C137.91192877 262.60000803 138.14444279 263.60173611 138.38400269 264.63381958 C138.5884796 265.5088167 138.7929565 266.38381382 139.00362968 267.285326 C139.4375 269.51757812 139.4375 269.51757812 139.4375 272.51757812 C170.14775871 272.43564752 200.85796819 272.34362521 231.5681521 272.23752651 C235.19427888 272.22500774 238.82040595 272.21257495 242.4465332 272.20019531 C243.1684258 272.19772932 243.89031841 272.19526332 244.63408654 272.1927226 C256.32082483 272.1530056 268.00757278 272.12025357 279.69433916 272.09007831 C291.68722358 272.05895751 303.68006703 272.02034541 315.67290539 271.97478807 C322.40859231 271.94941582 329.14425365 271.92749908 335.87997627 271.91423416 C342.21890121 271.90141126 348.55772672 271.87935408 354.89659691 271.85019493 C357.223791 271.84112101 359.55100111 271.83542936 361.87821198 271.83336449 C365.05507518 271.83004072 368.23165673 271.8145597 371.40846252 271.79605103 C372.79029192 271.79895313 372.79029192 271.79895313 374.20003706 271.80191386 C380.56225372 271.74648613 385.98769473 271.41060947 391.1875 267.39257812 C395.58746105 261.77040567 397.08535319 254.5430879 398.83837891 247.71948242 C399.16847961 246.45606773 399.16847961 246.45606773 399.50524902 245.16712952 C400.22894652 242.39306613 400.9465446 239.61746445 401.6640625 236.84179688 C402.17594025 234.87432144 402.68818508 232.90694147 403.20077515 230.93965149 C404.55247039 225.74764135 405.89894291 220.55429033 407.24438477 215.36065674 C408.84373127 209.19176586 410.45003447 203.02468258 412.0553093 196.85733223 C413.36271592 191.83171972 414.66641634 186.80519872 415.96221924 181.77658081 C418.13326851 173.35608188 420.30844707 164.93862899 422.59681892 156.54910946 C423.4816914 153.3016883 424.35333882 150.05078872 425.22379684 146.79947853 C425.62581713 145.31367902 426.03463155 143.82969793 426.45085526 142.34781456 C428.95004766 133.4458692 430.5720132 127.15970189 425.875 118.70507812 C420.26503357 113.67049287 412.87524048 113.07518478 405.61645508 113.14868164 C404.78597153 113.14491516 403.95548798 113.14114868 403.09983826 113.13726807 C401.31406083 113.13087945 399.52824933 113.13112399 397.74247169 113.13745308 C394.91285823 113.1466276 392.08389826 113.13626927 389.25431824 113.12083435 C381.21585989 113.0808973 373.17745716 113.07953672 365.13891602 113.08178711 C360.20711566 113.08183823 355.27567193 113.06266687 350.34396935 113.03245354 C347.56190668 113.02164895 344.78052978 113.03374212 341.99848938 113.04627991 C340.2891065 113.03737522 338.57972918 113.02730074 336.87036133 113.01586914 C336.10190887 113.02561264 335.33345642 113.03535614 334.54171753 113.0453949 C329.35156147 112.97624662 326.44803394 111.76884314 322.4375 108.51757812 C318.80916337 104.6982764 318.12749542 101.63478806 317.9375 96.51757812 C318.12749542 91.40036819 318.80916337 88.33687985 322.4375 84.51757812 C327.56238911 80.2825434 331.34496481 79.93550588 337.70898438 79.98413086 C338.62371521 79.97551529 339.53844604 79.96689972 340.480896 79.95802307 C343.49797079 79.93536799 346.51411547 79.94210605 349.53125 79.95117188 C351.64148228 79.94593278 353.75171221 79.93965525 355.86193848 79.93238831 C360.28697718 79.92198235 364.71169443 79.92654354 369.13671875 79.94116211 C374.77419182 79.95827174 380.41063816 79.93495226 386.04799652 79.89967251 C390.40985722 79.87756823 394.77147773 79.87917268 399.13337708 79.88743782 C401.20955016 79.88825174 403.2857419 79.8814967 405.36186218 79.86666679 C423.00686429 79.76002622 436.46950623 81.80882785 449.5859375 94.61523438 C458.35805439 103.86019772 463.40113472 115.30080061 463.44702148 128.19262695 C462.96632318 138.32581143 460.33632916 147.82766858 457.75 157.58007812 C457.23800009 159.54054948 456.72688775 161.5012528 456.21655273 163.4621582 C455.02332251 168.03916578 453.82265258 172.61416253 452.61914062 177.18847656 C450.75672268 184.27443887 448.92234161 191.36752476 447.09198475 198.46182728 C445.14309715 206.01548817 443.18747387 213.56738346 441.22732067 221.11812878 C439.99274763 225.87423451 438.76056658 230.63092753 437.53433228 235.38919067 C436.36025642 239.94327356 435.1772208 244.49494427 433.98790741 249.04507065 C433.5471636 250.73714079 433.10941574 252.42999473 432.6749649 254.12369156 C428.35172958 270.96263733 423.51364912 287.16199373 408.4375 297.51757812 C401.34537246 301.2847394 394.69750202 304.63797945 386.58196735 304.64786339 C385.60071929 304.65148774 384.61947123 304.65511208 383.60848838 304.65884626 C381.99513934 304.65724388 381.99513934 304.65724388 380.34919739 304.65560913 C379.20465157 304.65843041 378.06010575 304.66125169 376.88087672 304.66415846 C373.70343908 304.67105695 370.52603275 304.6735307 367.34858882 304.67420959 C363.9217271 304.67604997 360.494878 304.68365732 357.06802368 304.69068909 C351.128555 304.70221437 345.18908914 304.71045898 339.24961281 304.71680832 C329.85842139 304.72713752 320.46726531 304.74770236 311.07609558 304.76992798 C307.86248886 304.77740774 304.64888199 304.78482148 301.43527508 304.79221535 C300.63213928 304.79406591 299.82900348 304.79591648 299.00153023 304.79782312 C289.85901513 304.81875065 280.71649612 304.8375782 271.57397461 304.85546875 C270.32036468 304.85792602 270.32036468 304.85792602 269.0414293 304.86043294 C255.50362983 304.88670751 241.96582764 304.90535684 228.42801348 304.92206065 C214.52526879 304.93949161 200.62257752 304.96834806 186.71987551 305.00695002 C178.14707047 305.03032781 169.57435253 305.0443426 161.00151535 305.04627766 C155.12338452 305.04838977 149.24534023 305.06134191 143.36724827 305.08275698 C139.97774251 305.09476408 136.58855364 305.10031552 133.19900703 305.09604454 C129.51939049 305.09214885 125.84028033 305.10660877 122.16072083 305.12557983 C121.09630841 305.12005014 120.03189599 305.11452044 118.93522865 305.10882318 C112.73101549 305.16398258 107.06897518 305.72579604 101.4375 308.51757812 C96.84601111 313.22385423 96.08250819 316.58672537 96.15625 322.97460938 C96.56931244 326.70938231 97.94624332 328.7569964 100.4375 331.51757812 C105.1138154 334.9948383 109.65973122 335.64173374 115.3776083 335.64507008 C116.35224732 335.64807772 117.32688634 335.65108537 118.33105987 335.65418416 C119.39408657 335.65243379 120.45711327 335.65068342 121.55235291 335.64888 C122.68761919 335.65099572 123.82288548 335.65311143 124.99255377 335.65529126 C128.80485994 335.66129311 132.61713303 335.66029098 136.42944336 335.65942383 C139.15932883 335.66188306 141.88921133 335.66590216 144.61909485 335.66995239 C150.50180491 335.67805971 156.38451065 335.68300721 162.26722527 335.68624306 C171.56525876 335.69174323 180.86325565 335.70864374 190.16127014 335.72758484 C193.34299749 335.73394128 196.52472493 335.74024973 199.70645237 335.746562 C200.50156038 335.74814577 201.29666839 335.74972953 202.11587058 335.75136128 C211.16375159 335.76929272 220.21163517 335.78552234 229.25952148 335.80053711 C230.08651102 335.80191298 230.91350056 335.80328885 231.76555038 335.80470642 C245.17275321 335.82664555 258.57994659 335.83739528 271.98716419 335.84490786 C285.75320493 335.85297707 299.51916467 335.87625949 313.28515917 335.91286153 C321.77591964 335.93489117 330.26651361 335.9445498 338.75730122 335.93836119 C344.57468282 335.93518813 350.39192212 335.94650646 356.20925968 335.9692556 C359.56608105 335.98193041 362.92232018 335.98591074 366.27919388 335.97683907 C369.91834096 335.96799636 373.55658954 335.98357177 377.19566345 336.00532532 C378.25645943 335.99688278 379.31725541 335.98844024 380.41019672 335.97974187 C386.42022559 336.04635142 389.85022392 336.53345913 394.4375 340.51757812 C398.06583663 344.33687985 398.74750458 347.40036819 398.9375 352.51757812 C398.74750458 357.63478806 398.06583663 360.6982764 394.4375 364.51757812 C388.94098168 369.333748 383.95921059 369.08335939 376.85639954 369.0255127 C375.09625693 369.03487264 375.09625693 369.03487264 373.30055588 369.04442167 C370.05149073 369.05760243 366.80302481 369.05287726 363.55397475 369.0404768 C360.04664738 369.0314206 356.53940056 369.04539917 353.03208923 369.05639648 C346.16305485 369.07418306 339.2941953 369.07034035 332.42515407 369.05874592 C326.8394689 369.04970872 321.2538327 369.04848885 315.66814232 369.05284119 C314.87282717 369.05345412 314.07751203 369.05406705 313.25809642 369.05469856 C311.64231266 369.05597749 310.0265289 369.05727434 308.41074517 369.05858892 C293.25754949 369.06999608 278.10445058 369.05688083 262.95127078 369.03538746 C249.96233834 369.01753356 236.97354897 369.02060619 223.98461914 369.0390625 C208.89303631 369.06049657 193.80153845 369.0688793 178.70994252 369.05661345 C177.0986072 369.0553393 175.48727186 369.05408181 173.87593651 369.05284119 C173.08319051 369.05222408 172.29044451 369.05160698 171.47367591 369.05097118 C165.90028474 369.04752459 160.32694763 369.05333205 154.75356483 369.0627594 C147.95298675 369.07400974 141.1525932 369.0708766 134.3520361 369.04963642 C130.8852973 369.0391639 127.41886551 369.03493832 123.95212936 369.04823303 C120.18562177 369.05919947 116.41997196 369.04540938 112.65351868 369.0255127 C111.02682997 369.03889703 111.02682997 369.03889703 109.36727887 369.05255175 C96.73843421 368.92358282 84.94823799 363.8987484 75.6875 355.26757812 C71.82945426 351.12812199 69.01988865 346.53351458 66.4375 341.51757812 C65.81294922 340.33808594 65.81294922 340.33808594 65.17578125 339.13476562 C60.51035165 328.6907513 60.7554086 314.75002034 64 303.89257812 C66.29900319 298.15316523 69.54332801 293.29376343 73.4375 288.51757812 C73.93765625 287.88078125 74.4378125 287.24398438 74.953125 286.58789062 C81.51637875 279.12964773 91.96712032 274.80699774 101.4375 272.51757812 C102.7575 272.51757812 104.0775 272.51757812 105.4375 272.51757812 C105.25257996 271.76757034 105.06765991 271.01756256 104.87713623 270.24482727 C96.82480995 237.51062468 89.12050628 204.69316484 81.38131189 171.88390934 C80.07193637 166.33342203 78.76140711 160.78320809 77.45019531 155.2331543 C72.43337105 133.99758753 67.42510132 112.76002956 62.4375 91.51757812 C62.26981236 90.80341012 62.10212471 90.08924212 61.92935562 89.35343266 C59.85489616 80.51705258 57.78572467 71.67945881 55.72472382 62.83992958 C55.15264101 60.38786024 54.57948339 57.93604139 54.00519562 55.48448753 C53.22515492 52.15292052 52.449338 48.82039984 51.67480469 45.48754883 C51.44527351 44.51071703 51.21574234 43.53388523 50.97925568 42.52745247 C50.67129688 41.195855 50.67129688 41.195855 50.3571167 39.83735657 C50.17820263 39.06993291 49.99928856 38.30250925 49.81495285 37.51183033 C49.4375 35.51757812 49.4375 35.51757812 49.4375 32.51757812 C48.73672333 32.52646057 48.03594666 32.53534302 47.31393433 32.54449463 C40.69361713 32.62480916 34.07343687 32.68562764 27.45274162 32.72482681 C24.04933682 32.74565758 20.64633625 32.77389071 17.24316406 32.81933594 C13.32622194 32.87131162 9.40944065 32.89056081 5.4921875 32.90820312 C4.27634979 32.92884827 3.06051208 32.94949341 1.80783081 32.97076416 C-4.61842682 32.97246616 -8.72617153 32.93780214 -13.5625 28.51757812 C-17.19083663 24.6982764 -17.87250458 21.63478806 -18.0625 16.51757812 C-17.87250458 11.40036819 -17.19083663 8.33687985 -13.5625 4.51757812 C-8.93118623 0.84147282 -5.88011243 0.01419015 0 0 Z " fill="currentColor" transform="translate(33.5625,15.482421875)"/>
<path d="M0 0 C4.96772781 2.30644505 7.39111408 5.23795857 10 10 C10.56877757 13.0774423 10.56442477 16.09498892 10.54589844 19.21826172 C10.55623611 20.12621994 10.56657379 21.03417816 10.57722473 21.96965027 C10.60661021 24.95651129 10.60815102 27.9426934 10.609375 30.9296875 C10.6243595 33.00620818 10.64108721 35.08271696 10.65948486 37.15921021 C10.70314013 42.61389723 10.72315355 48.06842347 10.73822021 53.52325439 C10.75779776 59.09372456 10.79976711 64.66402127 10.83984375 70.234375 C10.91512622 81.15619647 10.96542969 92.07797909 11 103 C11.70576172 102.36771484 11.70576172 102.36771484 12.42578125 101.72265625 C13.04839844 101.17480469 13.67101562 100.62695312 14.3125 100.0625 C14.92738281 99.51722656 15.54226563 98.97195312 16.17578125 98.41015625 C20.47936396 95.08340388 25.82483781 95.44945083 31 96 C35.20563099 97.31723537 37.690185 99.61074526 40.4375 103.0625 C42.75412656 107.71581049 42.97673941 112.95111909 42 118 C38.86072213 123.40735677 34.72726958 127.56351045 30.3125 131.953125 C29.20322144 133.06527374 29.20322144 133.06527374 28.0715332 134.19989014 C26.51401325 135.75876596 24.95398525 137.31513951 23.39160156 138.86914062 C21.00091439 141.24908972 18.62111816 143.63955579 16.2421875 146.03125 C14.72459945 147.54751695 13.20639138 149.06316364 11.6875 150.578125 C10.97698486 151.2926886 10.26646973 152.0072522 9.53442383 152.74346924 C8.86693115 153.40465759 8.19943848 154.06584595 7.51171875 154.74707031 C6.92865967 155.32853821 6.34560059 155.9100061 5.74487305 156.50909424 C2.03569976 159.6783952 -1.04527755 160.31355315 -5.875 160.375 C-6.88304687 160.40335938 -7.89109375 160.43171875 -8.9296875 160.4609375 C-16.0777889 159.38781286 -21.06127731 153.24581487 -25.953125 148.34765625 C-26.6945575 147.61050888 -27.43598999 146.87336151 -28.19989014 146.11387634 C-29.7588473 144.56064082 -31.31521931 143.00480679 -32.86914062 141.4465332 C-35.24743149 139.06507193 -37.63876705 136.69727108 -40.03125 134.33007812 C-41.54768516 132.81591511 -43.06333745 131.30096756 -44.578125 129.78515625 C-45.6499704 128.72712547 -45.6499704 128.72712547 -46.74346924 127.64772034 C-51.52139618 122.82478246 -54.26325392 119.12030469 -54.375 112.125 C-54.24268319 106.89459419 -53.22664512 104.13672451 -50 100 C-45.17083552 96.2332517 -41.45648066 95.40764349 -35.36328125 95.67578125 C-29.84983953 96.43217078 -26.74243092 99.14609241 -23 103 C-22.99635437 101.84821259 -22.99270874 100.69642517 -22.98895264 99.50973511 C-22.95199843 88.65092036 -22.89422087 77.79238909 -22.81609726 66.93379021 C-22.77660183 61.35135605 -22.74442336 55.76908013 -22.72900391 50.18652344 C-22.71385112 44.7982028 -22.67942959 39.41031712 -22.63169098 34.02219009 C-22.61686305 31.96736559 -22.60895818 29.912479 -22.60811615 27.85760117 C-22.60574904 24.97735059 -22.57868954 22.09830452 -22.54589844 19.21826172 C-22.5509288 18.37021469 -22.55595917 17.52216766 -22.56114197 16.64842224 C-22.46690122 11.29204833 -21.52104004 8.26795341 -18 4 C-12.72867143 -1.00776214 -6.89190982 -0.92775709 0 0 Z " fill="currentColor" transform="translate(310,64)"/>
<path d="M0 0 C10.25043521 7.74112867 18.70526266 17.59173526 20.6875 30.6875 C21.96836177 44.82795902 21.06844427 57.71255554 12.4375 69.5625 C4.06048815 79.29647921 -6.30950268 87.6011099 -19.55273438 88.90869141 C-36.29194278 89.71018162 -48.24843021 87.01387295 -61.27734375 76.03125 C-69.90636197 68.02533375 -74.97975631 57.73921602 -75.62890625 46.03125 C-76.18819388 29.34451548 -72.52277041 17.35708981 -61 4.9375 C-44.70456176 -10.48496833 -18.58433045 -12.3339951 0 0 Z M-40.6875 32.3125 C-42.89157893 36.89020239 -43.1096639 40.69302411 -42.3125 45.6875 C-39.98281069 50.52608548 -37.15108548 53.35781069 -32.3125 55.6875 C-27.31802411 56.4846639 -23.51520239 56.26657893 -18.9375 54.0625 C-15.35342287 50.81976355 -12.71714759 48.22274104 -11.9296875 43.2890625 C-11.67366081 37.60527006 -12.37623068 34.03811345 -16.3125 29.6875 C-20.66311345 25.75123068 -24.23027006 25.04866081 -29.9140625 25.3046875 C-34.84774104 26.09214759 -37.44476355 28.72842287 -40.6875 32.3125 Z " fill="currentColor" transform="translate(395.3125,407.3125)"/>
<path d="M0 0 C10.25043521 7.74112867 18.70526266 17.59173526 20.6875 30.6875 C21.96836177 44.82795902 21.06844427 57.71255554 12.4375 69.5625 C4.06048815 79.29647921 -6.30950268 87.6011099 -19.55273438 88.90869141 C-36.29194278 89.71018162 -48.24843021 87.01387295 -61.27734375 76.03125 C-69.90636197 68.02533375 -74.97975631 57.73921602 -75.62890625 46.03125 C-76.18819388 29.34451548 -72.52277041 17.35708981 -61 4.9375 C-44.70456176 -10.48496833 -18.58433045 -12.3339951 0 0 Z M-40.6875 32.3125 C-42.89157893 36.89020239 -43.1096639 40.69302411 -42.3125 45.6875 C-39.98281069 50.52608548 -37.15108548 53.35781069 -32.3125 55.6875 C-27.31802411 56.4846639 -23.51520239 56.26657893 -18.9375 54.0625 C-15.35342287 50.81976355 -12.71714759 48.22274104 -11.9296875 43.2890625 C-11.67366081 37.60527006 -12.37623068 34.03811345 -16.3125 29.6875 C-20.66311345 25.75123068 -24.23027006 25.04866081 -29.9140625 25.3046875 C-34.84774104 26.09214759 -37.44476355 28.72842287 -40.6875 32.3125 Z " fill="currentColor" transform="translate(219.3125,407.3125)"/>
</svg>
