<?xml version="1.0" encoding="UTF-8"?>
<!DOCTYPE svg PUBLIC "-//W3C//DTD SVG 1.1//EN" "http://www.w3.org/Graphics/SVG/1.1/DTD/svg11.dtd">
<svg xmlns="http://www.w3.org/2000/svg" version="1.1" width="512px" height="512px" style="shape-rendering:geometricPrecision; text-rendering:geometricPrecision; image-rendering:optimizeQuality; fill-rule:evenodd; clip-rule:evenodd" xmlns:xlink="http://www.w3.org/1999/xlink">
<g><path style="opacity:0.992" fill="#fe0000" d="M 155.5,41.5 C 222.167,41.3333 288.834,41.5 355.5,42C 425.331,47.8312 463.165,85.6645 469,155.5C 469.667,222.167 469.667,288.833 469,355.5C 463.165,425.335 425.331,463.169 355.5,469C 288.833,469.667 222.167,469.667 155.5,469C 85.6624,463.162 47.8291,425.329 42,355.5C 41.3333,288.833 41.3333,222.167 42,155.5C 48.0058,85.6611 85.8391,47.6611 155.5,41.5 Z M 282.5,165.5 C 296.413,167.234 301.913,174.901 299,188.5C 276.681,211.652 254.181,234.652 231.5,257.5C 252.486,278.986 273.653,300.32 295,321.5C 301.436,334.625 297.603,342.958 283.5,346.5C 280.302,346.378 277.302,345.545 274.5,344C 248.667,318.167 222.833,292.333 197,266.5C 192.333,259.833 192.333,253.167 197,246.5C 222.833,220.667 248.667,194.833 274.5,169C 277.158,167.522 279.825,166.355 282.5,165.5 Z"/></g>
</svg>
