<?xml version="1.0" encoding="UTF-8"?>
<svg version="1.1" xmlns="http://www.w3.org/2000/svg" width="512" height="512">
<path d="M0 0 C1.59775263 -0.00571204 3.19550119 -0.01267951 4.79324341 -0.02079773 C9.10742844 -0.0386532 13.42140922 -0.03757506 17.73562002 -0.03185534 C21.34867267 -0.02875213 24.96168672 -0.03486856 28.57473385 -0.04089409 C37.1045431 -0.05491301 45.63425214 -0.05340029 54.1640625 -0.04199219 C62.93805086 -0.03051618 71.71173335 -0.04458392 80.48568141 -0.07138866 C88.04271772 -0.0936038 95.59965843 -0.1001699 103.15672505 -0.09431225 C107.65964088 -0.09095503 112.16236077 -0.09327496 116.66524887 -0.11056328 C120.90241942 -0.12612319 125.13913983 -0.12197762 129.37629318 -0.10325813 C130.92254048 -0.09959698 132.4688218 -0.10260769 134.01503754 -0.11314392 C150.13060092 -0.21449157 161.85462233 3.67968805 173.75048828 14.71655273 C184.70852411 26.29485474 186.45425524 39.08348007 186.40454102 54.40356445 C186.41025305 56.00131709 186.41722052 57.59906564 186.42533875 59.19680786 C186.44319421 63.51099289 186.44211608 67.82497368 186.43639636 72.13918447 C186.43329314 75.75223712 186.43940958 79.36525117 186.44543511 82.97829831 C186.45945402 91.50810755 186.4579413 100.03781659 186.4465332 108.56762695 C186.4350572 117.34161531 186.44912493 126.11529781 186.47592968 134.88924587 C186.49814481 142.44628218 186.50471092 150.00322289 186.49885327 157.5602895 C186.49549604 162.06320534 186.49781598 166.56592522 186.51510429 171.06881332 C186.5306642 175.30598388 186.52651863 179.54270428 186.50779915 183.77985764 C186.504138 185.32610493 186.5071487 186.87238626 186.51768494 188.41860199 C186.61903258 204.53416538 182.72485297 216.25818679 171.68798828 228.15405273 C160.10968627 239.11208856 147.32106095 240.8578197 132.00097656 240.80810547 C130.40322393 240.81381751 128.80547537 240.82078497 127.20773315 240.8289032 C122.89354812 240.84675867 118.57956734 240.84568053 114.26535654 240.83996081 C110.6523039 240.8368576 107.03928984 240.84297403 103.42624271 240.84899956 C94.89643346 240.86301848 86.36672443 240.86150576 77.83691406 240.85009766 C69.06292571 240.83862165 60.28924321 240.85268939 51.51529515 240.87949413 C43.95825884 240.90170926 36.40131813 240.90827537 28.84425151 240.90241772 C24.34133568 240.8990605 19.83861579 240.90138043 15.33572769 240.91866875 C11.09855714 240.93422865 6.86183673 240.93008308 2.62468338 240.9113636 C1.07843609 240.90770245 -0.46784524 240.91071316 -2.01406097 240.92124939 C-18.12962436 241.02259703 -29.85364577 237.12841742 -41.74951172 226.09155273 C-52.70754755 214.51325073 -54.45327868 201.7246254 -54.40356445 186.40454102 C-54.40927649 184.80678838 -54.41624396 183.20903983 -54.42436218 181.61129761 C-54.44221765 177.29711258 -54.44113951 172.98313179 -54.4354198 168.66892099 C-54.43231658 165.05586835 -54.43843302 161.44285429 -54.44445854 157.82980716 C-54.45847746 149.29999792 -54.45696474 140.77028888 -54.44555664 132.24047852 C-54.43408064 123.46649016 -54.44814837 114.69280766 -54.47495311 105.9188596 C-54.49716825 98.36182329 -54.50373436 90.80488258 -54.4978767 83.24781597 C-54.49451948 78.74490013 -54.49683942 74.24218025 -54.51412773 69.73929214 C-54.52968764 65.50212159 -54.52554207 61.26540118 -54.50682259 57.02824783 C-54.50316144 55.48200054 -54.50617214 53.93571921 -54.51670837 52.38950348 C-54.61805602 36.27394009 -50.72387641 24.54991868 -39.68701172 12.65405273 C-28.10870971 1.69601691 -15.32008438 -0.04971423 0 0 Z M-17.93701172 38.15405273 C-22.79369698 45.80701132 -22.29089593 53.44924354 -22.27416992 62.2746582 C-22.27852213 63.67979197 -22.28370698 65.08492336 -22.28965759 66.49005127 C-22.30300471 70.29179963 -22.30363102 74.0934483 -22.30109429 77.89521551 C-22.30002158 81.07594665 -22.30491567 84.25665787 -22.30969971 87.43738472 C-22.32078026 94.9453323 -22.32124062 102.45322985 -22.31518555 109.96118164 C-22.3091475 117.6905023 -22.32145574 125.41964084 -22.34275562 133.14893043 C-22.36040525 139.79969973 -22.36636765 146.45041124 -22.36311787 153.10120308 C-22.36131009 157.06692786 -22.36389047 161.03252273 -22.37783241 164.99822617 C-22.3904609 168.72968947 -22.38841962 172.46087015 -22.37542152 176.19232941 C-22.37195031 178.20276129 -22.38319685 180.213202 -22.39498901 182.22360229 C-22.39812835 193.25512654 -22.39812835 193.25512654 -17.72459888 202.98142815 C-10.52081236 209.62377946 -1.26615935 208.69602794 7.87109375 208.67871094 C9.27622752 208.68306315 10.68135891 208.68824799 12.08648682 208.69419861 C15.88823517 208.70754572 19.68988385 208.70817203 23.49165106 208.70563531 C26.6723822 208.70456259 29.85309342 208.70945668 33.03382027 208.71424073 C40.54176785 208.72532128 48.04966539 208.72578163 55.55761719 208.71972656 C63.28693784 208.71368852 71.01607638 208.72599676 78.74536598 208.74729663 C85.39613528 208.76494627 92.04684679 208.77090867 98.69763863 208.76765889 C102.6633634 208.7658511 106.62895828 208.76843148 110.59466171 208.78237343 C114.32612502 208.79500192 118.0573057 208.79296063 121.78876495 208.77996254 C123.79919683 208.77649132 125.80963755 208.78773787 127.82003784 208.79953003 C138.85156209 208.80266937 138.85156209 208.80266937 148.57786369 204.1291399 C155.22021501 196.92535338 154.29246349 187.67070037 154.27514648 178.53344727 C154.2794987 177.1283135 154.28468354 175.7231821 154.29063416 174.3180542 C154.30398127 170.51630584 154.30460758 166.71465716 154.30207086 162.91288996 C154.30099814 159.73215882 154.30589223 156.5514476 154.31067628 153.37072074 C154.32175682 145.86277316 154.32221718 138.35487562 154.31616211 130.84692383 C154.31012407 123.11760317 154.3224323 115.38846463 154.34373218 107.65917504 C154.36138181 101.00840574 154.36734421 94.35769423 154.36409444 87.70690238 C154.36228665 83.74117761 154.36486703 79.77558274 154.37880898 75.8098793 C154.39143747 72.07841599 154.38939618 68.34723532 154.37639809 64.61577606 C154.37292687 62.60534418 154.38417342 60.59490347 154.39596558 58.58450317 C154.39910492 47.55297892 154.39910492 47.55297892 149.72557545 37.82667732 C142.52178893 31.18432601 133.26713591 32.11207753 124.12988281 32.12939453 C122.72474905 32.12504232 121.31961765 32.11985748 119.91448975 32.11390686 C116.11274139 32.10055975 112.31109271 32.09993343 108.5093255 32.10247016 C105.32859437 32.10354288 102.14788315 32.09864879 98.96715629 32.09386474 C91.45920871 32.08278419 83.95131117 32.08232384 76.44335938 32.08837891 C68.71403872 32.09441695 60.98490018 32.08210871 53.25561059 32.06080884 C46.60484128 32.0431592 39.95412977 32.0371968 33.30333793 32.04044658 C29.33761316 32.04225437 25.37201829 32.03967399 21.40631485 32.02573204 C17.67485154 32.01310355 13.94367087 32.01514483 10.21221161 32.02814293 C8.20177973 32.03161414 6.19133901 32.0203676 4.18093872 32.00857544 C-7.95464184 32.01800601 -7.95464184 32.01800601 -17.93701172 38.15405273 Z " fill="currentColor" transform="translate(325.99951171875,271.595947265625)"/>
<path d="M0 0 C1.59775263 -0.00571204 3.19550119 -0.01267951 4.79324341 -0.02079773 C9.10742844 -0.0386532 13.42140922 -0.03757506 17.73562002 -0.03185534 C21.34867267 -0.02875213 24.96168672 -0.03486856 28.57473385 -0.04089409 C37.1045431 -0.05491301 45.63425214 -0.05340029 54.1640625 -0.04199219 C62.93805086 -0.03051618 71.71173335 -0.04458392 80.48568141 -0.07138866 C88.04271772 -0.0936038 95.59965843 -0.1001699 103.15672505 -0.09431225 C107.65964088 -0.09095503 112.16236077 -0.09327496 116.66524887 -0.11056328 C120.90241942 -0.12612319 125.13913983 -0.12197762 129.37629318 -0.10325813 C130.92254048 -0.09959698 132.4688218 -0.10260769 134.01503754 -0.11314392 C150.13060092 -0.21449157 161.85462233 3.67968805 173.75048828 14.71655273 C184.70852411 26.29485474 186.45425524 39.08348007 186.40454102 54.40356445 C186.41025305 56.00131709 186.41722052 57.59906564 186.42533875 59.19680786 C186.44319421 63.51099289 186.44211608 67.82497368 186.43639636 72.13918447 C186.43329314 75.75223712 186.43940958 79.36525117 186.44543511 82.97829831 C186.45945402 91.50810755 186.4579413 100.03781659 186.4465332 108.56762695 C186.4350572 117.34161531 186.44912493 126.11529781 186.47592968 134.88924587 C186.49814481 142.44628218 186.50471092 150.00322289 186.49885327 157.5602895 C186.49549604 162.06320534 186.49781598 166.56592522 186.51510429 171.06881332 C186.5306642 175.30598388 186.52651863 179.54270428 186.50779915 183.77985764 C186.504138 185.32610493 186.5071487 186.87238626 186.51768494 188.41860199 C186.61903258 204.53416538 182.72485297 216.25818679 171.68798828 228.15405273 C160.10968627 239.11208856 147.32106095 240.8578197 132.00097656 240.80810547 C130.40322393 240.81381751 128.80547537 240.82078497 127.20773315 240.8289032 C122.89354812 240.84675867 118.57956734 240.84568053 114.26535654 240.83996081 C110.6523039 240.8368576 107.03928984 240.84297403 103.42624271 240.84899956 C94.89643346 240.86301848 86.36672443 240.86150576 77.83691406 240.85009766 C69.06292571 240.83862165 60.28924321 240.85268939 51.51529515 240.87949413 C43.95825884 240.90170926 36.40131813 240.90827537 28.84425151 240.90241772 C24.34133568 240.8990605 19.83861579 240.90138043 15.33572769 240.91866875 C11.09855714 240.93422865 6.86183673 240.93008308 2.62468338 240.9113636 C1.07843609 240.90770245 -0.46784524 240.91071316 -2.01406097 240.92124939 C-18.12962436 241.02259703 -29.85364577 237.12841742 -41.74951172 226.09155273 C-52.70754755 214.51325073 -54.45327868 201.7246254 -54.40356445 186.40454102 C-54.40927649 184.80678838 -54.41624396 183.20903983 -54.42436218 181.61129761 C-54.44221765 177.29711258 -54.44113951 172.98313179 -54.4354198 168.66892099 C-54.43231658 165.05586835 -54.43843302 161.44285429 -54.44445854 157.82980716 C-54.45847746 149.29999792 -54.45696474 140.77028888 -54.44555664 132.24047852 C-54.43408064 123.46649016 -54.44814837 114.69280766 -54.47495311 105.9188596 C-54.49716825 98.36182329 -54.50373436 90.80488258 -54.4978767 83.24781597 C-54.49451948 78.74490013 -54.49683942 74.24218025 -54.51412773 69.73929214 C-54.52968764 65.50212159 -54.52554207 61.26540118 -54.50682259 57.02824783 C-54.50316144 55.48200054 -54.50617214 53.93571921 -54.51670837 52.38950348 C-54.61805602 36.27394009 -50.72387641 24.54991868 -39.68701172 12.65405273 C-28.10870971 1.69601691 -15.32008438 -0.04971423 0 0 Z M-17.93701172 38.15405273 C-22.79369698 45.80701132 -22.29089593 53.44924354 -22.27416992 62.2746582 C-22.27852213 63.67979197 -22.28370698 65.08492336 -22.28965759 66.49005127 C-22.30300471 70.29179963 -22.30363102 74.0934483 -22.30109429 77.89521551 C-22.30002158 81.07594665 -22.30491567 84.25665787 -22.30969971 87.43738472 C-22.32078026 94.9453323 -22.32124062 102.45322985 -22.31518555 109.96118164 C-22.3091475 117.6905023 -22.32145574 125.41964084 -22.34275562 133.14893043 C-22.36040525 139.79969973 -22.36636765 146.45041124 -22.36311787 153.10120308 C-22.36131009 157.06692786 -22.36389047 161.03252273 -22.37783241 164.99822617 C-22.3904609 168.72968947 -22.38841962 172.46087015 -22.37542152 176.19232941 C-22.37195031 178.20276129 -22.38319685 180.213202 -22.39498901 182.22360229 C-22.39812835 193.25512654 -22.39812835 193.25512654 -17.72459888 202.98142815 C-10.52081236 209.62377946 -1.26615935 208.69602794 7.87109375 208.67871094 C9.27622752 208.68306315 10.68135891 208.68824799 12.08648682 208.69419861 C15.88823517 208.70754572 19.68988385 208.70817203 23.49165106 208.70563531 C26.6723822 208.70456259 29.85309342 208.70945668 33.03382027 208.71424073 C40.54176785 208.72532128 48.04966539 208.72578163 55.55761719 208.71972656 C63.28693784 208.71368852 71.01607638 208.72599676 78.74536598 208.74729663 C85.39613528 208.76494627 92.04684679 208.77090867 98.69763863 208.76765889 C102.6633634 208.7658511 106.62895828 208.76843148 110.59466171 208.78237343 C114.32612502 208.79500192 118.0573057 208.79296063 121.78876495 208.77996254 C123.79919683 208.77649132 125.80963755 208.78773787 127.82003784 208.79953003 C138.85156209 208.80266937 138.85156209 208.80266937 148.57786369 204.1291399 C155.22021501 196.92535338 154.29246349 187.67070037 154.27514648 178.53344727 C154.2794987 177.1283135 154.28468354 175.7231821 154.29063416 174.3180542 C154.30398127 170.51630584 154.30460758 166.71465716 154.30207086 162.91288996 C154.30099814 159.73215882 154.30589223 156.5514476 154.31067628 153.37072074 C154.32175682 145.86277316 154.32221718 138.35487562 154.31616211 130.84692383 C154.31012407 123.11760317 154.3224323 115.38846463 154.34373218 107.65917504 C154.36138181 101.00840574 154.36734421 94.35769423 154.36409444 87.70690238 C154.36228665 83.74117761 154.36486703 79.77558274 154.37880898 75.8098793 C154.39143747 72.07841599 154.38939618 68.34723532 154.37639809 64.61577606 C154.37292687 62.60534418 154.38417342 60.59490347 154.39596558 58.58450317 C154.39910492 47.55297892 154.39910492 47.55297892 149.72557545 37.82667732 C142.52178893 31.18432601 133.26713591 32.11207753 124.12988281 32.12939453 C122.72474905 32.12504232 121.31961765 32.11985748 119.91448975 32.11390686 C116.11274139 32.10055975 112.31109271 32.09993343 108.5093255 32.10247016 C105.32859437 32.10354288 102.14788315 32.09864879 98.96715629 32.09386474 C91.45920871 32.08278419 83.95131117 32.08232384 76.44335938 32.08837891 C68.71403872 32.09441695 60.98490018 32.08210871 53.25561059 32.06080884 C46.60484128 32.0431592 39.95412977 32.0371968 33.30333793 32.04044658 C29.33761316 32.04225437 25.37201829 32.03967399 21.40631485 32.02573204 C17.67485154 32.01310355 13.94367087 32.01514483 10.21221161 32.02814293 C8.20177973 32.03161414 6.19133901 32.0203676 4.18093872 32.00857544 C-7.95464184 32.01800601 -7.95464184 32.01800601 -17.93701172 38.15405273 Z " fill="currentColor" transform="translate(53.99951171875,271.595947265625)"/>
<path d="M0 0 C1.59775263 -0.00571204 3.19550119 -0.01267951 4.79324341 -0.02079773 C9.10742844 -0.0386532 13.42140922 -0.03757506 17.73562002 -0.03185534 C21.34867267 -0.02875213 24.96168672 -0.03486856 28.57473385 -0.04089409 C37.1045431 -0.05491301 45.63425214 -0.05340029 54.1640625 -0.04199219 C62.93805086 -0.03051618 71.71173335 -0.04458392 80.48568141 -0.07138866 C88.04271772 -0.0936038 95.59965843 -0.1001699 103.15672505 -0.09431225 C107.65964088 -0.09095503 112.16236077 -0.09327496 116.66524887 -0.11056328 C120.90241942 -0.12612319 125.13913983 -0.12197762 129.37629318 -0.10325813 C130.92254048 -0.09959698 132.4688218 -0.10260769 134.01503754 -0.11314392 C150.13060092 -0.21449157 161.85462233 3.67968805 173.75048828 14.71655273 C184.70852411 26.29485474 186.45425524 39.08348007 186.40454102 54.40356445 C186.41025305 56.00131709 186.41722052 57.59906564 186.42533875 59.19680786 C186.44319421 63.51099289 186.44211608 67.82497368 186.43639636 72.13918447 C186.43329314 75.75223712 186.43940958 79.36525117 186.44543511 82.97829831 C186.45945402 91.50810755 186.4579413 100.03781659 186.4465332 108.56762695 C186.4350572 117.34161531 186.44912493 126.11529781 186.47592968 134.88924587 C186.49814481 142.44628218 186.50471092 150.00322289 186.49885327 157.5602895 C186.49549604 162.06320534 186.49781598 166.56592522 186.51510429 171.06881332 C186.5306642 175.30598388 186.52651863 179.54270428 186.50779915 183.77985764 C186.504138 185.32610493 186.5071487 186.87238626 186.51768494 188.41860199 C186.61903258 204.53416538 182.72485297 216.25818679 171.68798828 228.15405273 C160.10968627 239.11208856 147.32106095 240.8578197 132.00097656 240.80810547 C130.40322393 240.81381751 128.80547537 240.82078497 127.20773315 240.8289032 C122.89354812 240.84675867 118.57956734 240.84568053 114.26535654 240.83996081 C110.6523039 240.8368576 107.03928984 240.84297403 103.42624271 240.84899956 C94.89643346 240.86301848 86.36672443 240.86150576 77.83691406 240.85009766 C69.06292571 240.83862165 60.28924321 240.85268939 51.51529515 240.87949413 C43.95825884 240.90170926 36.40131813 240.90827537 28.84425151 240.90241772 C24.34133568 240.8990605 19.83861579 240.90138043 15.33572769 240.91866875 C11.09855714 240.93422865 6.86183673 240.93008308 2.62468338 240.9113636 C1.07843609 240.90770245 -0.46784524 240.91071316 -2.01406097 240.92124939 C-18.12962436 241.02259703 -29.85364577 237.12841742 -41.74951172 226.09155273 C-52.70754755 214.51325073 -54.45327868 201.7246254 -54.40356445 186.40454102 C-54.40927649 184.80678838 -54.41624396 183.20903983 -54.42436218 181.61129761 C-54.44221765 177.29711258 -54.44113951 172.98313179 -54.4354198 168.66892099 C-54.43231658 165.05586835 -54.43843302 161.44285429 -54.44445854 157.82980716 C-54.45847746 149.29999792 -54.45696474 140.77028888 -54.44555664 132.24047852 C-54.43408064 123.46649016 -54.44814837 114.69280766 -54.47495311 105.9188596 C-54.49716825 98.36182329 -54.50373436 90.80488258 -54.4978767 83.24781597 C-54.49451948 78.74490013 -54.49683942 74.24218025 -54.51412773 69.73929214 C-54.52968764 65.50212159 -54.52554207 61.26540118 -54.50682259 57.02824783 C-54.50316144 55.48200054 -54.50617214 53.93571921 -54.51670837 52.38950348 C-54.61805602 36.27394009 -50.72387641 24.54991868 -39.68701172 12.65405273 C-28.10870971 1.69601691 -15.32008438 -0.04971423 0 0 Z M-17.93701172 38.15405273 C-22.79369698 45.80701132 -22.29089593 53.44924354 -22.27416992 62.2746582 C-22.27852213 63.67979197 -22.28370698 65.08492336 -22.28965759 66.49005127 C-22.30300471 70.29179963 -22.30363102 74.0934483 -22.30109429 77.89521551 C-22.30002158 81.07594665 -22.30491567 84.25665787 -22.30969971 87.43738472 C-22.32078026 94.9453323 -22.32124062 102.45322985 -22.31518555 109.96118164 C-22.3091475 117.6905023 -22.32145574 125.41964084 -22.34275562 133.14893043 C-22.36040525 139.79969973 -22.36636765 146.45041124 -22.36311787 153.10120308 C-22.36131009 157.06692786 -22.36389047 161.03252273 -22.37783241 164.99822617 C-22.3904609 168.72968947 -22.38841962 172.46087015 -22.37542152 176.19232941 C-22.37195031 178.20276129 -22.38319685 180.213202 -22.39498901 182.22360229 C-22.39812835 193.25512654 -22.39812835 193.25512654 -17.72459888 202.98142815 C-10.52081236 209.62377946 -1.26615935 208.69602794 7.87109375 208.67871094 C9.27622752 208.68306315 10.68135891 208.68824799 12.08648682 208.69419861 C15.88823517 208.70754572 19.68988385 208.70817203 23.49165106 208.70563531 C26.6723822 208.70456259 29.85309342 208.70945668 33.03382027 208.71424073 C40.54176785 208.72532128 48.04966539 208.72578163 55.55761719 208.71972656 C63.28693784 208.71368852 71.01607638 208.72599676 78.74536598 208.74729663 C85.39613528 208.76494627 92.04684679 208.77090867 98.69763863 208.76765889 C102.6633634 208.7658511 106.62895828 208.76843148 110.59466171 208.78237343 C114.32612502 208.79500192 118.0573057 208.79296063 121.78876495 208.77996254 C123.79919683 208.77649132 125.80963755 208.78773787 127.82003784 208.79953003 C138.85156209 208.80266937 138.85156209 208.80266937 148.57786369 204.1291399 C155.22021501 196.92535338 154.29246349 187.67070037 154.27514648 178.53344727 C154.2794987 177.1283135 154.28468354 175.7231821 154.29063416 174.3180542 C154.30398127 170.51630584 154.30460758 166.71465716 154.30207086 162.91288996 C154.30099814 159.73215882 154.30589223 156.5514476 154.31067628 153.37072074 C154.32175682 145.86277316 154.32221718 138.35487562 154.31616211 130.84692383 C154.31012407 123.11760317 154.3224323 115.38846463 154.34373218 107.65917504 C154.36138181 101.00840574 154.36734421 94.35769423 154.36409444 87.70690238 C154.36228665 83.74117761 154.36486703 79.77558274 154.37880898 75.8098793 C154.39143747 72.07841599 154.38939618 68.34723532 154.37639809 64.61577606 C154.37292687 62.60534418 154.38417342 60.59490347 154.39596558 58.58450317 C154.39910492 47.55297892 154.39910492 47.55297892 149.72557545 37.82667732 C142.52178893 31.18432601 133.26713591 32.11207753 124.12988281 32.12939453 C122.72474905 32.12504232 121.31961765 32.11985748 119.91448975 32.11390686 C116.11274139 32.10055975 112.31109271 32.09993343 108.5093255 32.10247016 C105.32859437 32.10354288 102.14788315 32.09864879 98.96715629 32.09386474 C91.45920871 32.08278419 83.95131117 32.08232384 76.44335938 32.08837891 C68.71403872 32.09441695 60.98490018 32.08210871 53.25561059 32.06080884 C46.60484128 32.0431592 39.95412977 32.0371968 33.30333793 32.04044658 C29.33761316 32.04225437 25.37201829 32.03967399 21.40631485 32.02573204 C17.67485154 32.01310355 13.94367087 32.01514483 10.21221161 32.02814293 C8.20177973 32.03161414 6.19133901 32.0203676 4.18093872 32.00857544 C-7.95464184 32.01800601 -7.95464184 32.01800601 -17.93701172 38.15405273 Z " fill="currentColor" transform="translate(325.99951171875,-0.404052734375)"/>
<path d="M0 0 C1.59775263 -0.00571204 3.19550119 -0.01267951 4.79324341 -0.02079773 C9.10742844 -0.0386532 13.42140922 -0.03757506 17.73562002 -0.03185534 C21.34867267 -0.02875213 24.96168672 -0.03486856 28.57473385 -0.04089409 C37.1045431 -0.05491301 45.63425214 -0.05340029 54.1640625 -0.04199219 C62.93805086 -0.03051618 71.71173335 -0.04458392 80.48568141 -0.07138866 C88.04271772 -0.0936038 95.59965843 -0.1001699 103.15672505 -0.09431225 C107.65964088 -0.09095503 112.16236077 -0.09327496 116.66524887 -0.11056328 C120.90241942 -0.12612319 125.13913983 -0.12197762 129.37629318 -0.10325813 C130.92254048 -0.09959698 132.4688218 -0.10260769 134.01503754 -0.11314392 C150.13060092 -0.21449157 161.85462233 3.67968805 173.75048828 14.71655273 C184.70852411 26.29485474 186.45425524 39.08348007 186.40454102 54.40356445 C186.41025305 56.00131709 186.41722052 57.59906564 186.42533875 59.19680786 C186.44319421 63.51099289 186.44211608 67.82497368 186.43639636 72.13918447 C186.43329314 75.75223712 186.43940958 79.36525117 186.44543511 82.97829831 C186.45945402 91.50810755 186.4579413 100.03781659 186.4465332 108.56762695 C186.4350572 117.34161531 186.44912493 126.11529781 186.47592968 134.88924587 C186.49814481 142.44628218 186.50471092 150.00322289 186.49885327 157.5602895 C186.49549604 162.06320534 186.49781598 166.56592522 186.51510429 171.06881332 C186.5306642 175.30598388 186.52651863 179.54270428 186.50779915 183.77985764 C186.504138 185.32610493 186.5071487 186.87238626 186.51768494 188.41860199 C186.61903258 204.53416538 182.72485297 216.25818679 171.68798828 228.15405273 C160.10968627 239.11208856 147.32106095 240.8578197 132.00097656 240.80810547 C130.40322393 240.81381751 128.80547537 240.82078497 127.20773315 240.8289032 C122.89354812 240.84675867 118.57956734 240.84568053 114.26535654 240.83996081 C110.6523039 240.8368576 107.03928984 240.84297403 103.42624271 240.84899956 C94.89643346 240.86301848 86.36672443 240.86150576 77.83691406 240.85009766 C69.06292571 240.83862165 60.28924321 240.85268939 51.51529515 240.87949413 C43.95825884 240.90170926 36.40131813 240.90827537 28.84425151 240.90241772 C24.34133568 240.8990605 19.83861579 240.90138043 15.33572769 240.91866875 C11.09855714 240.93422865 6.86183673 240.93008308 2.62468338 240.9113636 C1.07843609 240.90770245 -0.46784524 240.91071316 -2.01406097 240.92124939 C-18.12962436 241.02259703 -29.85364577 237.12841742 -41.74951172 226.09155273 C-52.70754755 214.51325073 -54.45327868 201.7246254 -54.40356445 186.40454102 C-54.40927649 184.80678838 -54.41624396 183.20903983 -54.42436218 181.61129761 C-54.44221765 177.29711258 -54.44113951 172.98313179 -54.4354198 168.66892099 C-54.43231658 165.05586835 -54.43843302 161.44285429 -54.44445854 157.82980716 C-54.45847746 149.29999792 -54.45696474 140.77028888 -54.44555664 132.24047852 C-54.43408064 123.46649016 -54.44814837 114.69280766 -54.47495311 105.9188596 C-54.49716825 98.36182329 -54.50373436 90.80488258 -54.4978767 83.24781597 C-54.49451948 78.74490013 -54.49683942 74.24218025 -54.51412773 69.73929214 C-54.52968764 65.50212159 -54.52554207 61.26540118 -54.50682259 57.02824783 C-54.50316144 55.48200054 -54.50617214 53.93571921 -54.51670837 52.38950348 C-54.61805602 36.27394009 -50.72387641 24.54991868 -39.68701172 12.65405273 C-28.10870971 1.69601691 -15.32008438 -0.04971423 0 0 Z M-17.93701172 38.15405273 C-22.79369698 45.80701132 -22.29089593 53.44924354 -22.27416992 62.2746582 C-22.27852213 63.67979197 -22.28370698 65.08492336 -22.28965759 66.49005127 C-22.30300471 70.29179963 -22.30363102 74.0934483 -22.30109429 77.89521551 C-22.30002158 81.07594665 -22.30491567 84.25665787 -22.30969971 87.43738472 C-22.32078026 94.9453323 -22.32124062 102.45322985 -22.31518555 109.96118164 C-22.3091475 117.6905023 -22.32145574 125.41964084 -22.34275562 133.14893043 C-22.36040525 139.79969973 -22.36636765 146.45041124 -22.36311787 153.10120308 C-22.36131009 157.06692786 -22.36389047 161.03252273 -22.37783241 164.99822617 C-22.3904609 168.72968947 -22.38841962 172.46087015 -22.37542152 176.19232941 C-22.37195031 178.20276129 -22.38319685 180.213202 -22.39498901 182.22360229 C-22.39812835 193.25512654 -22.39812835 193.25512654 -17.72459888 202.98142815 C-10.52081236 209.62377946 -1.26615935 208.69602794 7.87109375 208.67871094 C9.27622752 208.68306315 10.68135891 208.68824799 12.08648682 208.69419861 C15.88823517 208.70754572 19.68988385 208.70817203 23.49165106 208.70563531 C26.6723822 208.70456259 29.85309342 208.70945668 33.03382027 208.71424073 C40.54176785 208.72532128 48.04966539 208.72578163 55.55761719 208.71972656 C63.28693784 208.71368852 71.01607638 208.72599676 78.74536598 208.74729663 C85.39613528 208.76494627 92.04684679 208.77090867 98.69763863 208.76765889 C102.6633634 208.7658511 106.62895828 208.76843148 110.59466171 208.78237343 C114.32612502 208.79500192 118.0573057 208.79296063 121.78876495 208.77996254 C123.79919683 208.77649132 125.80963755 208.78773787 127.82003784 208.79953003 C138.85156209 208.80266937 138.85156209 208.80266937 148.57786369 204.1291399 C155.22021501 196.92535338 154.29246349 187.67070037 154.27514648 178.53344727 C154.2794987 177.1283135 154.28468354 175.7231821 154.29063416 174.3180542 C154.30398127 170.51630584 154.30460758 166.71465716 154.30207086 162.91288996 C154.30099814 159.73215882 154.30589223 156.5514476 154.31067628 153.37072074 C154.32175682 145.86277316 154.32221718 138.35487562 154.31616211 130.84692383 C154.31012407 123.11760317 154.3224323 115.38846463 154.34373218 107.65917504 C154.36138181 101.00840574 154.36734421 94.35769423 154.36409444 87.70690238 C154.36228665 83.74117761 154.36486703 79.77558274 154.37880898 75.8098793 C154.39143747 72.07841599 154.38939618 68.34723532 154.37639809 64.61577606 C154.37292687 62.60534418 154.38417342 60.59490347 154.39596558 58.58450317 C154.39910492 47.55297892 154.39910492 47.55297892 149.72557545 37.82667732 C142.52178893 31.18432601 133.26713591 32.11207753 124.12988281 32.12939453 C122.72474905 32.12504232 121.31961765 32.11985748 119.91448975 32.11390686 C116.11274139 32.10055975 112.31109271 32.09993343 108.5093255 32.10247016 C105.32859437 32.10354288 102.14788315 32.09864879 98.96715629 32.09386474 C91.45920871 32.08278419 83.95131117 32.08232384 76.44335938 32.08837891 C68.71403872 32.09441695 60.98490018 32.08210871 53.25561059 32.06080884 C46.60484128 32.0431592 39.95412977 32.0371968 33.30333793 32.04044658 C29.33761316 32.04225437 25.37201829 32.03967399 21.40631485 32.02573204 C17.67485154 32.01310355 13.94367087 32.01514483 10.21221161 32.02814293 C8.20177973 32.03161414 6.19133901 32.0203676 4.18093872 32.00857544 C-7.95464184 32.01800601 -7.95464184 32.01800601 -17.93701172 38.15405273 Z " fill="currentColor" transform="translate(53.99951171875,-0.404052734375)"/>
</svg>
