<?xml version="1.0" encoding="UTF-8"?>
<!DOCTYPE svg PUBLIC "-//W3C//DTD SVG 1.1//EN" "http://www.w3.org/Graphics/SVG/1.1/DTD/svg11.dtd">
<svg xmlns="http://www.w3.org/2000/svg" version="1.1" width="512px" height="512px" style="shape-rendering:geometricPrecision; text-rendering:geometricPrecision; image-rendering:optimizeQuality; fill-rule:evenodd; clip-rule:evenodd" xmlns:xlink="http://www.w3.org/1999/xlink">
<g><path style="opacity:0.994" fill="#32ba7c" d="M 233.5,-0.5 C 248.167,-0.5 262.833,-0.5 277.5,-0.5C 377.805,11.9821 449.305,63.9821 492,155.5C 502.297,180.687 508.797,206.687 511.5,233.5C 511.5,238.167 511.5,242.833 511.5,247.5C 485.037,223.539 458.703,199.373 432.5,175C 429.603,172.59 426.603,170.423 423.5,168.5C 422.364,164.229 420.198,160.563 417,157.5C 408.137,148.303 398.97,139.469 389.5,131C 375.559,123.905 362.559,125.238 350.5,135C 306.32,179.347 261.986,223.514 217.5,267.5C 196.68,247.181 176.014,226.681 155.5,206C 141.546,198.905 128.546,200.239 116.5,210C 106.599,219.231 97.4326,229.064 89,239.5C 83.9159,250.497 84.5825,261.163 91,271.5C 127.369,309.369 164.535,346.369 202.5,382.5C 242.141,423.141 282.474,463.141 323.5,502.5C 308.405,506.793 293.071,509.793 277.5,511.5C 262.833,511.5 248.167,511.5 233.5,511.5C 133.195,499.018 61.6947,447.018 19,355.5C 8.70332,330.313 2.20332,304.313 -0.5,277.5C -0.5,262.833 -0.5,248.167 -0.5,233.5C 11.9821,133.195 63.9821,61.6947 155.5,19C 180.687,8.70332 206.687,2.20332 233.5,-0.5 Z"/></g>
<g><path style="opacity:1" fill="#fefefe" d="M 423.5,168.5 C 426.845,178.322 425.679,187.655 420,196.5C 358.5,258 297,319.5 235.5,381C 224.693,387.616 213.693,388.116 202.5,382.5C 164.535,346.369 127.369,309.369 91,271.5C 84.5825,261.163 83.9159,250.497 89,239.5C 97.4326,229.064 106.599,219.231 116.5,210C 128.546,200.239 141.546,198.905 155.5,206C 176.014,226.681 196.68,247.181 217.5,267.5C 261.986,223.514 306.32,179.347 350.5,135C 362.559,125.238 375.559,123.905 389.5,131C 398.97,139.469 408.137,148.303 417,157.5C 420.198,160.563 422.364,164.229 423.5,168.5 Z"/></g>
<g><path style="opacity:1" fill="#0aa06e" d="M 423.5,168.5 C 426.603,170.423 429.603,172.59 432.5,175C 458.703,199.373 485.037,223.539 511.5,247.5C 511.5,257.833 511.5,268.167 511.5,278.5C 501.695,362.756 461.362,427.923 390.5,474C 369.573,486.796 347.24,496.296 323.5,502.5C 282.474,463.141 242.141,423.141 202.5,382.5C 213.693,388.116 224.693,387.616 235.5,381C 297,319.5 358.5,258 420,196.5C 425.679,187.655 426.845,178.322 423.5,168.5 Z"/></g>
</svg>
