<?xml version="1.0" encoding="UTF-8"?>
<!DOCTYPE svg PUBLIC "-//W3C//DTD SVG 1.1//EN" "http://www.w3.org/Graphics/SVG/1.1/DTD/svg11.dtd">
<svg xmlns="http://www.w3.org/2000/svg" version="1.1" width="512px" height="512px" style="shape-rendering:geometricPrecision; text-rendering:geometricPrecision; image-rendering:optimizeQuality; fill-rule:evenodd; clip-rule:evenodd" xmlns:xlink="http://www.w3.org/1999/xlink">
<g><path style="opacity:0.952" fill="#9c0000" d="M 247.5,41.5 C 303.726,41.2621 340.893,67.5954 359,120.5C 369.944,174.42 352.11,215.587 305.5,244C 294.476,249.673 282.809,253.34 270.5,255C 347.357,255.996 405.523,289.162 445,354.5C 460.504,383.015 468.67,413.515 469.5,446C 470.065,457.895 464.732,465.562 453.5,469C 321.5,469.667 189.5,469.667 57.5,469C 46.268,465.562 40.9347,457.895 41.5,446C 45.108,374.749 76.7747,320.082 136.5,282C 168.608,263.306 203.275,254.306 240.5,255C 191.014,245.848 160.847,216.681 150,167.5C 143.666,113.235 164.833,74.0679 213.5,50C 224.571,45.5656 235.904,42.7323 247.5,41.5 Z M 254.5,63.5 C 297.534,66.3764 325.368,88.3764 338,129.5C 345.22,174.228 328.72,206.728 288.5,227C 247.299,241.039 213.132,231.205 186,197.5C 164.034,161.697 165.7,127.031 191,93.5C 208.096,74.7522 229.263,64.7522 254.5,63.5 Z M 221.5,277.5 C 244.169,277.333 266.836,277.5 289.5,278C 356.406,286.263 404.24,320.763 433,381.5C 442.175,402.541 446.675,424.541 446.5,447.5C 319.167,447.5 191.833,447.5 64.5,447.5C 67.3027,382.032 96.636,332.532 152.5,299C 174.23,287.325 197.23,280.158 221.5,277.5 Z"/></g>
</svg>
