<?xml version="1.0" encoding="UTF-8"?>
<svg version="1.1" xmlns="http://www.w3.org/2000/svg" width="512" height="512">
<path d="M0 0 C0.68964844 0.350625 1.37929688 0.70125 2.08984375 1.0625 C11.42147788 6.38430322 18.81790752 14.75302851 26.30761719 22.32641602 C29.84413342 25.88975591 33.4612265 29.28237095 37.3125 32.5078125 C39.00894116 34.0079063 40.44267025 35.61456838 41.9375 37.3125 C45.42231356 40.80319093 49.20144618 41.45627276 54 42 C57.31967447 41.90929407 60.52033628 41.42773115 63.79296875 40.8828125 C64.70146072 40.74680634 65.6099527 40.61080017 66.54597473 40.47067261 C69.42908574 40.03748346 72.30825766 39.58314374 75.1875 39.125 C114.9337669 32.88989496 114.9337669 32.88989496 131 44.4375 C131.66 44.953125 132.32 45.46875 133 46 C133.83402344 46.61746094 134.66804688 47.23492187 135.52734375 47.87109375 C138.11265877 50.09699689 139.73850687 52.18897021 141.5625 55.0625 C142.12066406 55.91972656 142.67882812 56.77695312 143.25390625 57.66015625 C149.36923665 69.35726473 150.94438108 81.93364417 153.0625 94.8125 C153.72984502 98.86262675 154.41006692 102.91029847 155.09765625 106.95703125 C155.24461441 107.87587601 155.39157257 108.79472076 155.54298401 109.7414093 C156.92213715 118.10337903 156.92213715 118.10337903 161.99707031 124.64135742 C162.76631836 125.06263916 163.53556641 125.4839209 164.328125 125.91796875 C165.21693359 126.41345215 166.10574219 126.90893555 167.02148438 127.41943359 C168.00439453 127.94102051 168.98730469 128.46260742 170 129 C171.06025391 129.57186035 172.12050781 130.1437207 173.21289062 130.73291016 C176.11030729 132.28366953 179.01491464 133.81973541 181.92352295 135.34936523 C216.91891313 153.80307474 216.91891313 153.80307474 224.8203125 172.9921875 C227.46504475 181.67137926 227.12281092 192.49532347 224 201 C223.71640625 201.78375 223.4328125 202.5675 223.140625 203.375 C220.3719685 210.43708035 216.96763453 217.1660034 213.5625 223.9375 C212.84078613 225.37464355 212.84078613 225.37464355 212.10449219 226.84082031 C208.29989693 234.41110904 208.29989693 234.41110904 206.91210938 237.13623047 C206.03043327 238.87489216 205.17039647 240.62448268 204.3125 242.375 C203.85488281 243.29023438 203.39726562 244.20546875 202.92578125 245.1484375 C200.79812542 251.70197656 201.85267071 256.60912993 204.79425049 262.59603882 C205.19730408 263.37645538 205.60035767 264.15687195 206.015625 264.9609375 C206.42786316 265.79154694 206.84010132 266.62215637 207.26483154 267.47793579 C208.57843425 270.11800021 209.91313395 272.74665086 211.25 275.375 C212.56833613 277.99812605 213.88207652 280.62346449 215.19232178 283.25064087 C216.00591863 284.8786026 216.82475867 286.50395948 217.64996338 288.12606812 C224.38595201 301.49256689 228.91960663 315.02719695 224.9375 330.125 C216.89521042 352.93654101 196.35016316 360.88611784 176.42553711 371.30175781 C174.4673946 372.32671372 172.51281544 373.35821786 170.55859375 374.390625 C168.84627563 375.2882959 168.84627563 375.2882959 167.09936523 376.20410156 C160.72877114 379.81380924 160.72877114 379.81380924 157.40234375 386.00390625 C154.95487096 395.37643891 153.67066408 405.07634039 152.12768555 414.62963867 C149.2679765 432.22995026 145.92040745 448.98654292 130.7578125 460.27734375 C111.84630012 472.09034227 91.79382045 467.55319419 71.06054688 464.3371582 C68.08698116 463.88010837 65.11056383 463.44833385 62.1328125 463.01953125 C61.23370148 462.87280472 60.33459045 462.72607819 59.40823364 462.5749054 C53.31605424 461.71750323 49.5623357 462.30838675 44 465 C41.03895134 467.39842477 41.03895134 467.39842477 38.5 470.25 C35.50087875 473.40948557 32.5320568 476.51223939 29.1875 479.3125 C25.90425209 482.0958295 22.91341581 485.09613902 19.91015625 488.1730957 C9.47544068 498.84358511 -1.62622161 507.91932875 -17.19384766 508.29223633 C-25.53657597 508.36360784 -32.42960057 507.89408025 -40 504 C-40.68964844 503.649375 -41.37929687 503.29875 -42.08984375 502.9375 C-51.42147788 497.61569678 -58.81790752 489.24697149 -66.30761719 481.67358398 C-69.84342074 478.11096218 -73.4615192 474.72083879 -77.30859375 471.4921875 C-79.0138447 469.98778597 -80.48273891 468.37874036 -82 466.6875 C-85.17082017 463.51696266 -88.61740185 462.54295918 -93 462 C-96.35531524 462.0936725 -99.60341038 462.58292691 -102.9140625 463.1171875 C-104.31221695 463.32119675 -104.31221695 463.32119675 -105.73861694 463.52932739 C-108.70313141 463.96332267 -111.66405228 464.41735066 -114.625 464.875 C-155.56880789 471.12364252 -155.56880789 471.12364252 -174 458 C-189.5509267 444.32790274 -190.72936842 422.53068696 -193.94775391 403.40112305 C-194.38382096 400.81927249 -194.83168748 398.23968624 -195.28125 395.66015625 C-195.40947144 394.87882828 -195.53769287 394.09750031 -195.6697998 393.29249573 C-196.6080546 387.97287689 -197.63127188 382.94681652 -201.99707031 379.35864258 C-202.76631836 378.93736084 -203.53556641 378.5160791 -204.328125 378.08203125 C-205.66133789 377.33880615 -205.66133789 377.33880615 -207.02148438 376.58056641 C-208.00439453 376.05897949 -208.98730469 375.53739258 -210 375 C-211.06025391 374.42813965 -212.12050781 373.8562793 -213.21289062 373.26708984 C-216.11030729 371.71633047 -219.01491464 370.18026459 -221.92352295 368.65063477 C-256.91891313 350.19692526 -256.91891313 350.19692526 -264.8203125 331.0078125 C-267.46504475 322.32862074 -267.12281092 311.50467653 -264 303 C-263.57460938 301.824375 -263.57460938 301.824375 -263.140625 300.625 C-260.3719685 293.56291965 -256.96763453 286.8339966 -253.5625 280.0625 C-253.08135742 279.1044043 -252.60021484 278.14630859 -252.10449219 277.15917969 C-248.29989693 269.58889096 -248.29989693 269.58889096 -246.91210938 266.86376953 C-246.03043327 265.12510784 -245.17039647 263.37551732 -244.3125 261.625 C-243.85488281 260.70976562 -243.39726562 259.79453125 -242.92578125 258.8515625 C-240.79812542 252.29802344 -241.85267071 247.39087007 -244.79425049 241.40396118 C-245.19730408 240.62354462 -245.60035767 239.84312805 -246.015625 239.0390625 C-246.63398224 237.79314835 -246.63398224 237.79314835 -247.26483154 236.52206421 C-248.57843425 233.88199979 -249.91313395 231.25334914 -251.25 228.625 C-252.56833613 226.00187395 -253.88207652 223.37653551 -255.19232178 220.74935913 C-256.00591863 219.1213974 -256.82475867 217.49604052 -257.64996338 215.87393188 C-264.38595201 202.50743311 -268.91960663 188.97280305 -264.9375 173.875 C-256.89521042 151.06345899 -236.35016316 143.11388216 -216.42553711 132.69824219 C-214.4673946 131.67328628 -212.51281544 130.64178214 -210.55859375 129.609375 C-208.84627563 128.7117041 -208.84627563 128.7117041 -207.09936523 127.79589844 C-200.72877114 124.18619076 -200.72877114 124.18619076 -197.40234375 117.99609375 C-194.95487096 108.62356109 -193.67066408 98.92365961 -192.12768555 89.37036133 C-189.2679765 71.77004974 -185.92040745 55.01345708 -170.7578125 43.72265625 C-152.14479962 32.09611421 -132.6764683 36.34216324 -112.28149414 39.58740234 C-109.45394976 40.03329077 -106.62389481 40.45900755 -103.79296875 40.8828125 C-102.51766548 41.09516037 -102.51766548 41.09516037 -101.21659851 41.3117981 C-95.11257785 42.21258605 -88.46938835 42.47771337 -83.22229004 38.73042297 C-81.67996732 37.33786009 -80.31159899 35.8708888 -78.9375 34.3125 C-77.90428039 33.21042074 -76.86912941 32.11014892 -75.83203125 31.01171875 C-75.34299316 30.48497559 -74.85395508 29.95823242 -74.35009766 29.41552734 C-72.705572 27.69130316 -70.95509942 26.14942971 -69.125 24.625 C-65.86121259 21.86543027 -62.89454142 18.88440013 -59.91235352 15.82910156 C-43.96453565 -0.47863143 -22.3983399 -11.52131189 0 0 Z M-34.6796875 34.671875 C-36.63964542 36.63843211 -38.63337023 38.42920662 -40.73828125 40.234375 C-44.41729839 43.42069708 -47.81011419 46.80696263 -51.18969727 50.30615234 C-61.47985336 60.94069434 -72.53359181 71.15653398 -88.09960938 72.2097168 C-101.10655948 72.39036888 -113.6588532 70.38408078 -126.4765625 68.3371582 C-129.36739138 67.88022227 -132.26116455 67.44854051 -135.15625 67.01953125 C-136.02721313 66.87280472 -136.89817627 66.72607819 -137.79553223 66.5749054 C-143.81173596 65.70114327 -147.49622196 66.36605178 -153 69 C-159.05202146 73.83151643 -159.52074235 80.7063635 -160.71270752 87.98825073 C-161.06646709 90.14923344 -161.44288033 92.30516709 -161.82568359 94.46118164 C-162.33195232 97.32221529 -162.83013564 100.18442189 -163.31982422 103.04833984 C-164.20086543 108.1885948 -165.13907921 113.31634284 -166.125 118.4375 C-166.3262146 119.56792725 -166.3262146 119.56792725 -166.53149414 120.72119141 C-168.79902354 132.50164206 -174.85538687 142.28224969 -184 150 C-187.73889416 152.37104333 -191.59953753 154.43691824 -195.54467773 156.44366455 C-197.4104005 157.39301308 -199.2656149 158.36056963 -201.11914062 159.33349609 C-203.59166129 160.63002065 -206.06707926 161.92063686 -208.54589844 163.20507812 C-213.22158217 165.63479447 -217.87203348 168.10573218 -222.5 170.625 C-223.57386963 171.19033447 -223.57386963 171.19033447 -224.66943359 171.76708984 C-230.24266483 174.80915093 -233.11587846 177.82653455 -235.5 183.6875 C-237.68330738 194.4754616 -226.32016877 209.74549163 -221.62158203 219.21313477 C-220.40680487 221.66440711 -219.19916296 224.11909776 -217.9921875 226.57421875 C-217.62133026 227.31604904 -217.25047302 228.05787933 -216.86837769 228.82218933 C-213.86117005 234.95209874 -211.89972655 240.83670682 -211.25 247.6875 C-211.15203125 248.59886719 -211.0540625 249.51023438 -210.953125 250.44921875 C-211.09622011 261.28867343 -214.352828 269.96896891 -219.0625 279.625 C-219.64870015 280.85569306 -220.23364859 282.08698306 -220.81738281 283.31884766 C-224.52674918 291.11201897 -228.33507392 298.86500909 -232.37133789 306.49462891 C-234.7006774 310.98816194 -236.47613477 315.04154466 -235.65234375 320.16015625 C-235.41644531 320.78792969 -235.18054688 321.41570312 -234.9375 322.0625 C-234.71964844 322.69285156 -234.50179687 323.32320313 -234.27734375 323.97265625 C-230.03347807 330.70833297 -222.09107311 333.74406898 -215.25 337.1875 C-213.00318833 338.34235433 -210.75709905 339.49861513 -208.51171875 340.65625 C-205.42091529 342.2438216 -202.32999555 343.83112438 -199.23681641 345.4140625 C-186.08041418 352.19922111 -174.160537 359.24126579 -169 374 C-166.48058243 382.32723157 -165.00455232 390.855118 -163.5234375 399.4140625 C-163.39305588 400.16524353 -163.26267426 400.91642456 -163.12834167 401.69036865 C-162.46772437 405.50990188 -161.82024911 409.33099363 -161.19360352 413.15625 C-160.95081689 414.59637664 -160.7079021 416.03648169 -160.46484375 417.4765625 C-160.254646 418.75611816 -160.04444824 420.03567383 -159.82788086 421.35400391 C-158.6987232 426.32682621 -157.37631396 430.5854551 -153.75 434.3125 C-147.095648 438.39585236 -141.87017444 438.1100384 -134.4375 436.8828125 C-133.5285498 436.74680634 -132.61959961 436.61080017 -131.68310547 436.47067261 C-128.78639289 436.03612231 -125.89317351 435.58247793 -123 435.125 C-83.25330207 428.89458218 -83.25330207 428.89458218 -64.96142578 440.80834961 C-59.54225631 444.81889243 -54.97008022 449.65450811 -50.3125 454.5 C-48.35466925 456.51474257 -46.39109379 458.52380748 -44.42578125 460.53125 C-43.5030542 461.47403809 -42.58032715 462.41682617 -41.62963867 463.38818359 C-38.72212971 466.27598703 -35.71659589 468.99378745 -32.59033203 471.64111328 C-31.19847234 472.83041188 -29.87374886 474.09737291 -28.5625 475.375 C-24.83326856 477.73987847 -21.37888587 478.17141546 -17 478 C-11.93461451 476.44937179 -8.86381573 473.10172584 -5.3203125 469.328125 C-3.36035458 467.36156789 -1.36662977 465.57079338 0.73828125 463.765625 C4.41729839 460.57930292 7.81011419 457.19303737 11.18969727 453.69384766 C21.47985336 443.05930566 32.53359181 432.84346602 48.09960938 431.7902832 C61.10655948 431.60963112 73.6588532 433.61591922 86.4765625 435.6628418 C89.36739138 436.11977773 92.26116455 436.55145949 95.15625 436.98046875 C96.02721313 437.12719528 96.89817627 437.27392181 97.79553223 437.4250946 C103.81173596 438.29885673 107.49622196 437.63394822 113 435 C119.05202146 430.16848357 119.52074235 423.2936365 120.71270752 416.01174927 C121.06646709 413.85076656 121.44288033 411.69483291 121.82568359 409.53881836 C122.33195232 406.67778471 122.83013564 403.81557811 123.31982422 400.95166016 C124.20086543 395.8114052 125.13907921 390.68365716 126.125 385.5625 C126.25914307 384.80888184 126.39328613 384.05526367 126.53149414 383.27880859 C128.79902354 371.49835794 134.85538687 361.71775031 144 354 C147.73889416 351.62895667 151.59953753 349.56308176 155.54467773 347.55633545 C157.4104005 346.60698692 159.2656149 345.63943037 161.11914062 344.66650391 C163.59166129 343.36997935 166.06707926 342.07936314 168.54589844 340.79492188 C173.22158217 338.36520553 177.87203348 335.89426782 182.5 333.375 C183.21591309 332.99811035 183.93182617 332.6212207 184.66943359 332.23291016 C190.24266483 329.19084907 193.11587846 326.17346545 195.5 320.3125 C197.68330738 309.5245384 186.32016877 294.25450837 181.62158203 284.78686523 C180.40680487 282.33559289 179.19916296 279.88090224 177.9921875 277.42578125 C177.62133026 276.68395096 177.25047302 275.94212067 176.86837769 275.17781067 C173.86117005 269.04790126 171.89972655 263.16329318 171.25 256.3125 C171.15203125 255.40113281 171.0540625 254.48976563 170.953125 253.55078125 C171.09622011 242.71132657 174.352828 234.03103109 179.0625 224.375 C179.64870015 223.14430694 180.23364859 221.91301694 180.81738281 220.68115234 C184.52674918 212.88798103 188.33507392 205.13499091 192.37133789 197.50537109 C194.7006774 193.01183806 196.47613477 188.95845534 195.65234375 183.83984375 C195.29849609 182.89818359 195.29849609 182.89818359 194.9375 181.9375 C194.71964844 181.30714844 194.50179688 180.67679688 194.27734375 180.02734375 C190.03347807 173.29166703 182.09107311 170.25593102 175.25 166.8125 C173.00318833 165.65764567 170.75709905 164.50138487 168.51171875 163.34375 C165.42091529 161.7561784 162.32999555 160.16887562 159.23681641 158.5859375 C146.08041418 151.80077889 134.160537 144.75873421 129 130 C126.48058243 121.67276843 125.00455232 113.144882 123.5234375 104.5859375 C123.39305588 103.83475647 123.26267426 103.08357544 123.12834167 102.30963135 C122.46772437 98.49009812 121.82024911 94.66900637 121.19360352 90.84375 C120.95081689 89.40362336 120.7079021 87.96351831 120.46484375 86.5234375 C120.14954712 84.604104 120.14954712 84.604104 119.82788086 82.64599609 C118.6987232 77.67317379 117.37631396 73.4145449 113.75 69.6875 C107.10567217 65.61029883 101.89312219 65.88747804 94.47265625 67.1171875 C93.56607773 67.25319366 92.65949921 67.38919983 91.72544861 67.52932739 C88.83544507 67.96385961 85.94893478 68.41740332 83.0625 68.875 C42.25371963 75.3007591 42.25371963 75.3007591 25 63 C17.76790938 57.22420066 11.36020243 50.44161155 4.88427734 43.84814453 C0.96793108 39.87896721 -3.05400222 36.11480644 -7.28881836 32.48632812 C-8.7150962 31.24746673 -10.08440487 29.94340039 -11.4375 28.625 C-20.71368738 22.74253971 -28.01979202 27.57951877 -34.6796875 34.671875 Z " fill="currentColor" transform="translate(276,4)"/>
<path d="M0 0 C3.87201794 3.07341424 6.15147778 5.7898896 6.9375 10.80078125 C7.18612076 14.84651913 6.98031506 18.32357805 4.58959013 21.71016753 C3.74408233 22.63090624 3.74408233 22.63090624 2.88149357 23.57024574 C2.24761286 24.26335263 1.61373215 24.95645953 0.96064293 25.67056966 C-2.39035271 29.1989065 -5.78765973 32.67398066 -9.22889709 36.11434937 C-10.4198322 37.3107995 -10.4198322 37.3107995 -11.6348266 38.53142035 C-14.27770987 41.18525695 -16.92410352 43.83556351 -19.57055664 46.48583984 C-21.47334393 48.39489758 -23.37594783 50.30413668 -25.27836609 52.21356201 C-30.96884774 57.92370138 -36.66408237 63.62908853 -42.35994044 69.33386415 C-45.04570109 72.02401934 -47.73097692 74.71465838 -50.41631889 77.40523148 C-59.34548241 86.35138536 -68.27589172 95.29629287 -77.20992374 104.23758507 C-79.52220151 106.55177248 -81.83447389 108.86596525 -84.14672852 111.18017578 C-84.72137541 111.75530641 -85.2960223 112.33043705 -85.88808274 112.92299588 C-95.21519169 122.25842121 -104.53374008 131.60234334 -113.84878094 140.94980888 C-123.42179849 150.55587658 -133.0023101 160.15441774 -142.59026808 169.74557364 C-147.96988224 175.12735319 -153.34615507 180.51238066 -158.71406746 185.9058342 C-163.28023508 190.49367956 -167.85313672 195.07467473 -172.43502361 199.64682357 C-174.77201872 201.97926749 -177.10453611 204.31589864 -179.43064499 206.65920639 C-181.95233779 209.19850132 -184.48599194 211.72522225 -187.02308655 214.24911499 C-188.12197467 215.36445698 -188.12197467 215.36445698 -189.24306256 216.50233114 C-193.60632515 220.81080848 -197.04681112 223.47463393 -203.37109375 223.98828125 C-208.63875484 223.52434046 -211.87909656 222.18989668 -215.68359375 218.46484375 C-218.77706402 214.73164734 -219.26214555 211.12906678 -219.125 206.42578125 C-218.5523896 202.73599801 -217.52287048 200.77159384 -215.00649357 198.03131676 C-214.0556725 196.99165642 -214.0556725 196.99165642 -213.08564293 195.93099284 C-209.73464729 192.402656 -206.33734027 188.92758184 -202.89610291 185.48721313 C-202.10214617 184.68957971 -201.30818943 183.89194628 -200.4901734 183.07014215 C-197.84729013 180.41630555 -195.20089648 177.76599899 -192.55444336 175.11572266 C-190.65165607 173.20666492 -188.74905217 171.29742582 -186.84663391 169.38800049 C-181.15615226 163.67786112 -175.46091763 157.97247397 -169.76505956 152.26769835 C-167.07929891 149.57754316 -164.39402308 146.88690412 -161.70868111 144.19633102 C-152.77951759 135.25017714 -143.84910828 126.30526963 -134.91507626 117.36397743 C-132.60279849 115.04979002 -130.29052611 112.73559725 -127.97827148 110.42138672 C-127.40362459 109.84625609 -126.8289777 109.27112545 -126.23691726 108.67856662 C-116.90980831 99.34314129 -107.59125992 89.99921916 -98.27621906 80.65175362 C-88.70320151 71.04568592 -79.1226899 61.44714476 -69.53473192 51.85598886 C-64.15511776 46.47420931 -58.77884493 41.08918184 -53.41093254 35.6957283 C-48.84476492 31.10788294 -44.27186328 26.52688777 -39.68997639 21.95473893 C-37.35298128 19.62229501 -35.02046389 17.28566386 -32.69435501 14.94235611 C-30.17266221 12.40306118 -27.63900806 9.87634025 -25.10191345 7.35244751 C-24.36932137 6.60888618 -23.63672929 5.86532485 -22.88193744 5.09923136 C-16.41070457 -1.29074852 -8.62424569 -5.01447619 0 0 Z " fill="currentColor" transform="translate(362.0625,145.19921875)"/>
<path d="M0 0 C12.64697107 8.4827245 21.13971438 19.77139163 24.77734375 34.6875 C27.46434846 49.29918574 25.14863606 63.46174663 17.53125 76.28125 C8.55472593 89.28805018 -3.87381871 98.16863168 -19.4765625 101.1796875 C-34.21707943 103.05077479 -48.96047048 100.53971364 -61 91.5 C-73.21891883 81.88360014 -81.43025747 70.23322642 -83.6328125 54.5390625 C-85.34969448 38.4836854 -80.97455297 22.87474938 -70.875 10.1875 C-52.46087783 -9.01108029 -22.91234356 -14.14905678 0 0 Z M-48.62890625 32.43359375 C-52.78080228 38.6910097 -53.85395787 44.13749832 -53 51.5 C-51.31277924 58.51786026 -48.03856114 63.32788927 -41.9375 67.25 C-35.79778269 70.97389764 -30.06066951 71.14513732 -23 70.5 C-16.14805996 68.4399396 -11.35226264 63.98598126 -7.75 57.875 C-4.85308453 52.2880916 -4.23588497 47.70953246 -5 41.5 C-7.21814281 34.70631597 -10.83562357 29.22815581 -17 25.5 C-28.5158635 20.21435934 -40.67015727 22.07004292 -48.62890625 32.43359375 Z " fill="currentColor" transform="translate(226,130.5)"/>
<path d="M0 0 C12.21891883 9.61639986 20.43025747 21.26677358 22.6328125 36.9609375 C24.34969448 53.0163146 19.97455297 68.62525062 9.875 81.3125 C-0.34551411 91.96841717 -13.98330411 98.96926494 -28.80297852 99.29272461 C-45.64682291 99.4191588 -58.09212943 95.11057213 -71 84 C-81.60799586 71.93885402 -87.7494119 58.2550544 -86.84375 41.9765625 C-85.51267952 26.38614428 -79.0667306 13.95224718 -68 3 C-48.82782215 -12.97681487 -20.43976838 -15.34691639 0 0 Z M-51 30 C-55.30660572 36.59085268 -56.96241005 42.17903553 -56 50 C-53.77418561 56.8171804 -50.15697554 62.23396265 -44 66 C-37.68107997 69.20064478 -31.8657531 69.60829434 -25 68 C-17.332443 65.48046528 -13.01979265 60.56830035 -9.125 53.6875 C-6.81026301 46.10030652 -7.3471638 39.05266211 -11 32 C-14.45859269 26.4918709 -19.89278332 23.03573889 -26 21 C-36.5637367 20.0453512 -44.0201015 21.66289902 -51 30 Z " fill="currentColor" transform="translate(347,290)"/>
</svg>
