<?xml version="1.0" encoding="UTF-8"?>
<!DOCTYPE svg PUBLIC "-//W3C//DTD SVG 1.1//EN" "http://www.w3.org/Graphics/SVG/1.1/DTD/svg11.dtd">
<svg xmlns="http://www.w3.org/2000/svg" version="1.1" width="512px" height="512px" style="shape-rendering:geometricPrecision; text-rendering:geometricPrecision; image-rendering:optimizeQuality; fill-rule:evenodd; clip-rule:evenodd" xmlns:xlink="http://www.w3.org/1999/xlink">
<g><path style="opacity:0.962" fill="#000000" d="M 396.5,19.5 C 404.323,19.7171 411.156,22.3837 417,27.5C 424.625,39.2488 432.125,51.0822 439.5,63C 452.899,66.0797 466.232,69.413 479.5,73C 494.596,82.2122 498.096,94.7122 490,110.5C 481.29,120.208 472.957,130.208 465,140.5C 465.216,153.859 466.049,167.192 467.5,180.5C 464.557,198.808 453.89,206.641 435.5,204C 423.043,199.02 410.543,194.187 398,189.5C 385.457,194.187 372.957,199.02 360.5,204C 345.392,206.535 335.225,200.702 330,186.5C 330.001,170.819 330.335,155.153 331,139.5C 323,130.167 315,120.833 307,111.5C 298.768,98.4524 300.268,86.6191 311.5,76C 314.215,74.0922 317.215,72.7589 320.5,72C 332.5,69 344.5,66 356.5,63C 363.458,52.251 370.292,41.4177 377,30.5C 382.068,24.0551 388.568,20.3884 396.5,19.5 Z M 397.5,54.5 C 405.02,65.6875 412.687,76.8542 420.5,88C 433.635,92.2843 446.968,95.951 460.5,99C 451.242,108.921 442.742,119.421 435,130.5C 434.739,144.188 435.239,157.855 436.5,171.5C 423.855,166.847 411.188,162.181 398.5,157.5C 385.286,161.524 372.453,166.524 360,172.5C 360.236,160.462 361.069,148.462 362.5,136.5C 361.96,131.035 359.794,126.368 356,122.5C 349.52,114.386 342.687,106.553 335.5,99C 349.032,95.951 362.365,92.2843 375.5,88C 383.465,77.2327 390.799,66.066 397.5,54.5 Z"/></g>
<g><path style="opacity:0.964" fill="#000000" d="M 74.5,97.5 C 138.834,97.3333 203.168,97.5 267.5,98C 276.959,102.352 279.792,109.519 276,119.5C 274.235,122.473 271.735,124.64 268.5,126C 204.476,126.029 140.476,126.696 76.5,128C 62.0966,132.07 52.5966,141.236 48,155.5C 46.8464,190.621 46.3464,225.788 46.5,261C 46.6667,294.833 46.8333,328.667 47,362.5C 50.4785,377.978 59.6452,388.478 74.5,394C 101.793,395.29 129.126,395.956 156.5,396C 163.662,398.844 167.329,404.177 167.5,412C 166.478,427.827 165.978,443.66 166,459.5C 167.808,461.396 169.975,461.896 172.5,461C 200.654,439.424 228.988,418.09 257.5,397C 293.773,395.686 330.107,395.019 366.5,395C 383.805,391.694 394.638,381.528 399,364.5C 399.027,321.129 399.693,277.795 401,234.5C 404.781,226.695 410.947,223.862 419.5,226C 424.667,227.167 427.833,230.333 429,235.5C 429.667,279.167 429.667,322.833 429,366.5C 424.518,392.65 410.018,410.817 385.5,421C 379.674,423.099 373.674,424.432 367.5,425C 334.833,425.333 302.167,425.667 269.5,426C 242.833,446 216.167,466 189.5,486C 170.672,495.91 154.506,492.743 141,476.5C 137.641,470.256 135.808,463.589 135.5,456.5C 136.371,446.186 136.704,435.852 136.5,425.5C 117.164,425.667 97.8305,425.5 78.5,425C 46.3306,420.164 26.1639,401.998 18,370.5C 16.8527,334.199 16.3527,297.865 16.5,261.5C 16.356,224.805 16.856,188.139 18,151.5C 25.8048,121.866 44.6382,103.866 74.5,97.5 Z"/></g>
<g><path style="opacity:0.956" fill="#000000" d="M 146.5,209.5 C 199.834,209.333 253.168,209.5 306.5,210C 319.257,213.347 323.09,221.181 318,233.5C 316.062,236.106 313.562,237.939 310.5,239C 254.5,239.667 198.5,239.667 142.5,239C 134.436,235.371 131.269,229.205 133,220.5C 135.144,213.856 139.644,210.189 146.5,209.5 Z"/></g>
<g><path style="opacity:0.951" fill="#000000" d="M 143.5,282.5 C 173.835,282.333 204.168,282.5 234.5,283C 245.415,287.257 248.581,294.757 244,305.5C 241.635,308.869 238.468,311.036 234.5,312C 204.167,312.667 173.833,312.667 143.5,312C 132.398,307.277 129.564,299.444 135,288.5C 137.322,285.605 140.155,283.605 143.5,282.5 Z"/></g>
</svg>
