<?xml version="1.0" encoding="UTF-8"?>
<!DOCTYPE svg PUBLIC "-//W3C//DTD SVG 1.1//EN" "http://www.w3.org/Graphics/SVG/1.1/DTD/svg11.dtd">
<svg xmlns="http://www.w3.org/2000/svg" version="1.1" width="512px" height="512px" style="shape-rendering:geometricPrecision; text-rendering:geometricPrecision; image-rendering:optimizeQuality; fill-rule:evenodd; clip-rule:evenodd" xmlns:xlink="http://www.w3.org/1999/xlink">
<g><path style="opacity:0.99" fill="#9c0000" d="M 235.5,-0.5 C 248.833,-0.5 262.167,-0.5 275.5,-0.5C 353.362,11.1851 405.529,54.1851 432,128.5C 447.93,185.242 439.93,238.242 408,287.5C 357.279,362.048 306.779,436.715 256.5,511.5C 255.833,511.5 255.167,511.5 254.5,511.5C 201.677,433.195 148.843,354.862 96,276.5C 69.9635,229.539 64.2969,180.206 79,128.5C 105.421,54.2439 157.588,11.2439 235.5,-0.5 Z M 254.5,31.5 C 321.107,34.6879 368.273,66.3546 396,126.5C 411.739,169.395 409.739,211.395 390,252.5C 370.582,282.338 350.915,312.005 331,341.5C 329.81,346.213 327.81,350.547 325,354.5C 306.505,380.821 288.505,407.488 271,434.5C 265.617,440.378 260.45,446.378 255.5,452.5C 213.257,391.685 171.757,330.352 131,268.5C 122.745,255.321 116.078,241.321 111,226.5C 95.9572,172.351 106.624,124.018 143,81.5C 173.495,50.0033 210.662,33.3367 254.5,31.5 Z M 246.5,102.5 C 291.566,102.19 316.899,124.356 322.5,169C 321.067,198.393 307.067,219.06 280.5,231C 246.83,241.776 219.663,232.943 199,204.5C 180.839,168.319 187.672,137.819 219.5,113C 228.048,107.99 237.048,104.49 246.5,102.5 Z"/></g>
<g><path style="opacity:0.99" fill="#9c0000" d="M 244.5,69.5 C 294.149,67.0576 328.983,88.3909 349,133.5C 362.737,176.721 353.237,213.887 320.5,245C 291.875,267.818 259.875,274.151 224.5,264C 187.139,250.107 164.639,223.607 157,184.5C 152.496,140.012 168.996,105.845 206.5,82C 218.596,75.6895 231.263,71.5228 244.5,69.5 Z M 246.5,102.5 C 237.048,104.49 228.048,107.99 219.5,113C 187.672,137.819 180.839,168.319 199,204.5C 219.663,232.943 246.83,241.776 280.5,231C 307.067,219.06 321.067,198.393 322.5,169C 316.899,124.356 291.566,102.19 246.5,102.5 Z"/></g>
</svg>
