<?xml version="1.0" encoding="UTF-8"?>
<svg version="1.1" xmlns="http://www.w3.org/2000/svg" width="512" height="512">
<path d="M0 0 C3.61395175 2.97681249 7.27964195 5.88001568 10.97265625 8.7578125 C16.02153897 12.69921231 21.01023855 16.70813263 25.97265625 20.7578125 C31.52183684 25.28535322 37.11181262 29.75297112 42.75390625 34.1640625 C47.65582639 37.99889798 52.51524943 41.88503591 57.36962891 45.77978516 C61.52850264 49.11269172 65.71149826 52.41272535 69.91015625 55.6953125 C75.66883553 60.20040173 81.34693935 64.79897395 87.01147461 69.42163086 C91.86022646 73.37188074 96.75979476 77.25054746 101.69018555 81.09814453 C106.78553088 85.0850565 111.790079 89.17858891 116.79418945 93.27905273 C120.96017962 96.6744725 125.19139617 99.96104584 129.48901367 103.18798828 C150.56628694 119.03445731 166.88266604 136.16319868 171.49823475 163.35405731 C172.02894649 167.72099409 172.11461088 171.95789073 172.10636902 176.35070801 C172.10863458 177.24448701 172.11090013 178.13826602 172.11323434 179.05912924 C172.11954507 182.04268798 172.11874685 185.02620096 172.11791992 188.00976562 C172.12091334 190.15392109 172.12431629 192.29807601 172.12809753 194.44223022 C172.13692564 200.260822 172.13927522 206.07939907 172.13991332 211.8979969 C172.14062479 215.53797177 172.142761 219.17794292 172.14541054 222.81791687 C172.1546618 235.53063188 172.15874592 248.24333642 172.15795898 260.95605469 C172.15735906 272.78188851 172.16789467 284.6076766 172.18370265 296.43349886 C172.19680997 306.60364384 172.2021415 316.77377393 172.20150357 326.94392729 C172.20124942 333.01020637 172.20405474 339.07644483 172.21468163 345.14271545 C172.22441577 350.85548012 172.22440555 356.56816581 172.21716499 362.28093338 C172.21612556 364.36773927 172.21844356 366.45455022 172.22452545 368.5413475 C172.31603016 402.13770297 164.68833685 429.72327274 141.16015625 454.5078125 C120.76655018 474.10851009 94.91313785 482.5467188 67.0390625 482.59375 C65.63003921 482.60020083 64.22101717 482.60693075 62.81199646 482.61392212 C59.87813211 482.62580135 56.94438469 482.62961245 54.01049805 482.62841797 C50.28783802 482.6282147 46.5659406 482.65556658 42.84346104 482.68996239 C39.93914982 482.71240699 37.03501757 482.71625029 34.13062859 482.71519852 C32.10302416 482.71864139 30.07547555 482.74017567 28.04798889 482.76229858 C12.97413849 482.68878023 0.18035508 478.36639014 -10.83984375 467.9453125 C-14.85213211 463.71404361 -17.56825665 459.51179041 -20.02734375 454.2578125 C-20.38033539 453.5857074 -20.73332703 452.91360229 -21.09701538 452.22113037 C-25.66805336 442.08063746 -24.59224738 430.77587335 -24.56640625 419.8984375 C-24.57632404 417.62163351 -24.58826938 415.34483753 -24.60214233 413.0680542 C-24.63438686 407.09987958 -24.64488657 401.1318884 -24.64898682 395.16363525 C-24.65776997 385.59845766 -24.69330518 376.03342972 -24.74116135 366.46837616 C-24.75371599 363.13643237 -24.75299162 359.80467986 -24.75088501 356.47271729 C-24.75746645 354.42614597 -24.76447294 352.37957597 -24.77197266 350.33300781 C-24.76784866 349.41233017 -24.76372467 348.49165253 -24.75947571 347.54307556 C-24.79571839 338.41639736 -24.79571839 338.41639736 -29.40234375 330.8828125 C-33.81909187 328.14863509 -37.55000689 328.12611135 -42.7043457 328.09667969 C-43.36668213 328.09171478 -44.02901855 328.08674988 -44.71142578 328.08163452 C-46.89616955 328.06706545 -49.08084069 328.0602195 -51.265625 328.0546875 C-52.79013571 328.04893145 -54.31464641 328.04317378 -55.8391571 328.03741455 C-59.034295 328.02691932 -62.22940785 328.02106709 -65.42456055 328.01757812 C-69.50659479 328.01209834 -73.58829466 327.98807534 -77.67022419 327.95960617 C-80.81962533 327.94092599 -83.96894681 327.93577133 -87.11839867 327.93424225 C-88.6226096 327.93122701 -90.12681951 327.92323681 -91.63097572 327.91005707 C-93.74162417 327.89288401 -95.85146707 327.89490361 -97.9621582 327.90136719 C-99.75941093 327.89589874 -99.75941093 327.89589874 -101.5929718 327.89031982 C-106.38204947 328.40277188 -110.51818287 329.6480409 -113.90234375 333.2578125 C-115.65026281 336.36522417 -116.15109068 338.88763107 -116.15332031 342.38696289 C-116.15712708 343.21535172 -116.16093384 344.04374054 -116.16485596 344.89723206 C-116.16588318 345.79095016 -116.1669104 346.68466827 -116.16796875 347.60546875 C-116.18630897 349.50977747 -116.20588039 351.41407465 -116.2265625 353.31835938 C-116.2554185 356.31131298 -116.277341 359.30352954 -116.27783203 362.29663086 C-116.30367393 384.55204225 -116.30367393 384.55204225 -122.02734375 391.2578125 C-127.96396835 396.12056954 -133.34279125 397.770116 -141.02734375 397.2578125 C-148.3459076 395.49078283 -152.86119814 391.50703091 -157.02734375 385.2578125 C-157.99313598 382.36043581 -158.16981969 380.45860296 -158.2043457 377.44189453 C-158.21718094 376.46302277 -158.23001617 375.484151 -158.24324036 374.47561646 C-158.25062729 373.41631927 -158.25801422 372.35702209 -158.265625 371.265625 C-158.27369675 370.16870331 -158.28176849 369.07178162 -158.29008484 367.94161987 C-158.30392889 365.61311421 -158.3146496 363.28458823 -158.32250977 360.95605469 C-158.33960885 357.43123467 -158.38347948 353.90738076 -158.42773438 350.3828125 C-158.56137743 331.03004212 -156.16160687 316.16335156 -142.46875 301.61328125 C-131.50664138 291.03703886 -118.22330677 286.1202569 -103.10107422 286.09667969 C-102.32943436 286.09171478 -101.55779449 286.08674988 -100.76277161 286.08163452 C-98.22334888 286.06709479 -95.68398868 286.0602234 -93.14453125 286.0546875 C-91.83479528 286.05044643 -91.83479528 286.05044643 -90.49860001 286.04611969 C-85.87471467 286.03115751 -81.25086027 286.02191023 -76.62695312 286.01757812 C-71.87961335 286.01210849 -67.13256254 285.98810386 -62.38531303 285.95960617 C-58.70986132 285.94086539 -55.03447751 285.93576807 -51.35898209 285.93424225 C-49.61049959 285.93123921 -47.8620176 285.92329139 -46.11358261 285.91005707 C-27.82837377 285.78156806 -12.12988754 288.73129893 1.73413086 301.66821289 C14.21001812 314.13995327 17.26716647 328.9917466 17.33840275 346.03975105 C17.33729078 348.17614953 17.33176032 350.31254947 17.32221603 352.44892693 C17.3083643 355.84135187 17.31497961 359.23319946 17.32705688 362.62562561 C17.35787662 372.2616069 17.35305942 381.89744731 17.33300781 391.53344727 C17.32210406 397.44777899 17.33524026 403.36167125 17.36290359 409.27594185 C17.36834465 411.52421355 17.36427908 413.77252921 17.35050583 416.0207653 C17.33150033 419.15618059 17.34282754 422.29014754 17.36083984 425.42553711 C17.34750107 426.35183426 17.33416229 427.27813141 17.32041931 428.23249817 C17.37672821 432.63453372 17.55022345 434.66970942 20.18147278 438.33288574 C23.22045534 440.42870599 24.60189464 440.88502436 28.2434082 440.88891602 C29.27250809 440.90144913 30.30160797 440.91398224 31.3618927 440.92689514 C32.46707748 440.91363693 33.57226227 440.90037872 34.7109375 440.88671875 C35.86450241 440.88913071 37.01806732 440.89154266 38.20658875 440.89402771 C40.65183949 440.89304843 43.09711217 440.87963576 45.54223633 440.85473633 C49.23403053 440.82078271 52.92338103 440.83398724 56.61523438 440.85351562 C78.55237242 440.84005065 98.01334809 438.3369601 114.27734375 422.17578125 C125.15721726 410.39713558 130.12333925 396.08878386 130.11982727 380.258255 C130.1253423 378.91463474 130.1253423 378.91463474 130.13096875 377.54387063 C130.14196559 374.54787728 130.14584261 371.55191867 130.1496582 368.5559082 C130.15592581 366.40540966 130.16257288 364.25491219 130.16957092 362.10441589 C130.19057618 355.0474828 130.20096918 347.99054957 130.2109375 340.93359375 C130.21498621 338.50133948 130.21910316 336.06908532 130.22328758 333.63683128 C130.24233051 322.21006743 130.25656413 310.78331001 130.26489955 299.35653335 C130.27467263 286.17763959 130.30099793 272.99891375 130.34140044 259.82007915 C130.37157942 249.62538935 130.38637008 239.43074766 130.38968056 229.23601407 C130.39202873 223.15078504 130.40095944 217.06573559 130.42614174 210.98055458 C130.44945885 205.25380042 130.45364089 199.52734365 130.44338036 193.80055428 C130.4428858 191.70399739 130.4491825 189.60742568 130.4629364 187.51091385 C130.55088896 173.30441898 130.1044248 161.23199776 119.97265625 150.2578125 C114.59898412 144.91737958 108.58356897 140.31642613 102.61254883 135.67211914 C98.07343962 132.14076553 93.60808422 128.52808222 89.16015625 124.8828125 C83.7000222 120.41579075 78.16050088 116.0771205 72.53515625 111.8203125 C65.93287125 106.82128818 59.50881267 101.64147453 53.13916016 96.35009766 C48.22552769 92.27263478 43.2464076 88.29512578 38.21020508 84.37060547 C33.75136514 80.88882753 29.35518347 77.33503265 24.97265625 73.7578125 C17.70940667 67.83305738 10.36121767 62.02511244 2.97265625 56.2578125 C-3.67825788 51.06629895 -10.31178339 45.86072945 -16.84155273 40.51708984 C-20.22532628 37.74971292 -23.62275026 34.99952278 -27.02734375 32.2578125 C-27.74921875 31.67612305 -28.47109375 31.09443359 -29.21484375 30.49511719 C-41.19366591 20.82359493 -41.19366591 20.82359493 -55.02734375 14.2578125 C-56.24421875 13.8246875 -57.46109375 13.3915625 -58.71484375 12.9453125 C-72.25310828 10.09369441 -86.59849025 12.13735583 -98.3203125 19.4375 C-103.75178339 22.98968104 -108.90702369 26.83734749 -114.02734375 30.8203125 C-115.85977327 32.23034201 -117.69312679 33.63917144 -119.52734375 35.046875 C-120.44257813 35.74973633 -121.3578125 36.45259766 -122.30078125 37.17675781 C-159.7258298 65.74150655 -159.7258298 65.74150655 -172.02734375 64.2578125 C-178.24914625 62.42528866 -182.47591125 58.5966436 -186.02734375 53.2578125 C-188.77736216 47.38277316 -188.88466397 41.32214616 -186.96484375 35.1953125 C-183.76164817 27.77125446 -176.77962524 23.09811609 -170.27734375 18.6953125 C-168.77476515 17.65679242 -167.27351371 16.61635011 -165.7734375 15.57421875 C-164.99726074 15.03555176 -164.22108398 14.49688477 -163.42138672 13.94189453 C-159.34400264 11.07367147 -155.3438348 8.10220036 -151.33984375 5.1328125 C-143.62422997 -0.57209383 -135.91060119 -6.2701434 -128.02734375 -11.7421875 C-127.46241211 -12.13776855 -126.89748047 -12.53334961 -126.31542969 -12.94091797 C-83.60663185 -42.59646351 -37.45013273 -30.87663002 0 0 Z " fill="#000000" transform="translate(327.02734375,29.7421875)"/>
<path d="M0 0 C4.63605041 3.79898575 6.62562016 7.49420613 7.6875 13.3828125 C7.78236056 19.92819132 6.62386747 25.01897111 2.6875 30.3828125 C0.63545511 32.22882879 -1.27221965 33.80177558 -3.5 35.3828125 C-4.07371338 35.80941162 -4.64742676 36.23601074 -5.23852539 36.67553711 C-7.78783262 38.56960358 -10.36541756 40.42046538 -12.953125 42.26171875 C-21.5701347 48.57792824 -27.03782348 56.88137865 -28.83765793 67.47335148 C-29.35146562 71.70362349 -29.45765666 75.79682042 -29.45294189 80.05137634 C-29.45591302 80.89953071 -29.45888414 81.74768507 -29.4619453 82.62154108 C-29.47058531 85.45074782 -29.47213657 88.279912 -29.47363281 91.10913086 C-29.47826444 93.14329111 -29.48328957 95.1774505 -29.48867798 97.21160889 C-29.5017738 102.73068738 -29.50824185 108.24975372 -29.51268864 113.76884532 C-29.51562492 117.22255728 -29.51973084 120.67626597 -29.52419281 124.12997627 C-29.53786253 134.95179953 -29.54753082 145.77361524 -29.5513947 156.59544653 C-29.55586931 169.05714583 -29.5733917 181.51873511 -29.6023953 193.98040098 C-29.62407219 203.63167 -29.63410224 213.28290821 -29.63543582 222.9342013 C-29.63647987 228.68922414 -29.64230182 234.4441435 -29.66025543 240.19914055 C-29.67683944 245.62056211 -29.67884187 251.04180355 -29.67011642 256.46324158 C-29.66935145 258.44158984 -29.67361654 260.41994821 -29.68357468 262.39827156 C-29.7510225 276.64540894 -29.73118384 291.83486463 -22.75 304.6953125 C-22.40557861 305.35136475 -22.06115723 306.00741699 -21.70629883 306.68334961 C-13.82814757 321.02112902 -0.87936044 330.62181395 14.6875 335.3828125 C22.55453871 337.01806837 30.15179322 337.66852663 38.17236328 337.62231445 C39.78949722 337.62533569 39.78949722 337.62533569 41.43930054 337.62841797 C43.75704824 337.63193659 46.07480559 337.63122996 48.39255142 337.62664223 C52.06771012 337.62100182 55.74255877 337.63028343 59.41769409 337.6438446 C69.85871893 337.68078562 80.29963411 337.6994992 90.74072266 337.68823242 C97.1478607 337.68236918 103.55455711 337.70069314 109.96160507 337.73412132 C112.39273723 337.74204966 114.82391784 337.74083344 117.25503922 337.73009682 C120.65765475 337.71570763 124.05888591 337.73210385 127.46142578 337.75512695 C128.4539032 337.74335922 129.44638062 337.73159149 130.46893311 337.71946716 C137.44052118 337.81153021 142.88541154 339.42854173 148.6875 343.3828125 C153.93664015 348.87644993 155.05795946 354.17698579 154.9609375 361.53125 C154.36915773 367.70266758 151.68104504 371.74689935 147.125 375.8203125 C143.44370365 378.82930083 140.4463666 379.50734287 135.74034119 379.52998352 C134.20814186 379.54071648 134.20814186 379.54071648 132.64498901 379.55166626 C130.9643486 379.55569962 130.9643486 379.55569962 129.24975586 379.55981445 C128.0687883 379.56638565 126.88782074 379.57295685 125.67106628 379.57972717 C121.74816536 379.59949198 117.82527788 379.61114236 113.90234375 379.62109375 C112.54595991 379.62514397 111.18957626 379.62926097 109.83319283 379.63344383 C103.44729549 379.65251011 97.06140969 379.66672754 90.67548937 379.6750558 C83.34434609 379.68477736 76.01350885 379.71095603 68.68247312 379.75155669 C62.99470257 379.78195464 57.30701839 379.79654757 51.61916834 379.79983681 C48.23372057 379.80216426 44.84859901 379.81081432 41.46323967 379.83629799 C19.98890181 379.97561317 2.0145266 378.10690383 -17.3125 368.3828125 C-18.37082031 367.85945313 -19.42914063 367.33609375 -20.51953125 366.796875 C-28.4116615 362.55601864 -34.60026916 356.94404967 -40.94238281 350.71337891 C-42.04656462 349.6410712 -43.1861559 348.60529248 -44.3359375 347.58203125 C-60.59630122 332.81029238 -69.32676722 308.75902867 -71.3125 287.3828125 C-71.44672485 284.28564961 -71.4561769 281.19349083 -71.45294189 278.09373474 C-71.45591302 277.19093421 -71.45888414 276.28813367 -71.4619453 275.35797554 C-71.47057762 272.34988755 -71.4721359 269.34183961 -71.47363281 266.33374023 C-71.4782649 264.16973283 -71.48329008 262.00572624 -71.48867798 259.84172058 C-71.50176724 253.97360601 -71.50824027 248.10550286 -71.51268864 242.23737597 C-71.51562527 238.56607139 -71.51973121 234.8947699 -71.52419281 231.22346687 C-71.53785924 219.7219486 -71.5475298 208.22043742 -71.5513947 196.71891159 C-71.55587202 183.46992811 -71.57340847 170.22104797 -71.6023953 156.97209591 C-71.62405726 146.71275958 -71.63410141 136.45345223 -71.63543582 126.19409329 C-71.6364807 120.07526708 -71.64232088 113.95653813 -71.66025543 107.83773613 C-71.67681405 102.07650641 -71.67885395 96.31544626 -71.67011642 90.55420113 C-71.66935018 88.4496528 -71.67363373 86.34509506 -71.68357468 84.24057007 C-71.79780541 58.53252523 -66.6335207 35.80617355 -47.98046875 16.7734375 C-35.56391205 4.83836064 -17.24980996 -12.17224493 0 0 Z " fill="#000000" transform="translate(84.3125,132.6171875)"/>
</svg>
