<?xml version="1.0" encoding="UTF-8"?>
<!DOCTYPE svg PUBLIC "-//W3C//DTD SVG 1.1//EN" "http://www.w3.org/Graphics/SVG/1.1/DTD/svg11.dtd">
<svg xmlns="http://www.w3.org/2000/svg" version="1.1" width="512px" height="512px" style="shape-rendering:geometricPrecision; text-rendering:geometricPrecision; image-rendering:optimizeQuality; fill-rule:evenodd; clip-rule:evenodd" xmlns:xlink="http://www.w3.org/1999/xlink">
<g><path style="opacity:0.978" fill="#000000" d="M 511.5,245.5 C 511.5,250.5 511.5,255.5 511.5,260.5C 504.098,279.535 490.431,286.368 470.5,281C 468.004,279.92 465.67,278.586 463.5,277C 397.5,211 331.5,145 265.5,79C 258.833,74.3333 252.167,74.3333 245.5,79C 179.5,145 113.5,211 47.5,277C 31.273,286.713 16.773,284.546 4,270.5C 2.1702,267.185 0.670196,263.851 -0.5,260.5C -0.5,255.5 -0.5,250.5 -0.5,245.5C 1.4539,240.935 3.9539,236.602 7,232.5C 72.5,167 138,101.5 203.5,36C 233.551,12.8086 265.217,10.4753 298.5,29C 321.608,50.1068 344.108,71.9401 366,94.5C 366.333,82.5 366.667,70.5 367,58.5C 374.168,38.4995 388.002,31.6662 408.5,38C 416.939,42.4418 422.439,49.2751 425,58.5C 425.333,90.5 425.667,122.5 426,154.5C 452,180.5 478,206.5 504,232.5C 507.046,236.602 509.546,240.935 511.5,245.5 Z"/></g>
<g><path style="opacity:0.99" fill="#000000" d="M 250.5,131.5 C 254.936,131.21 259.27,131.71 263.5,133C 322,191.5 380.5,250 439,308.5C 440.044,310.715 440.71,313.048 441,315.5C 441.667,357.833 441.667,400.167 441,442.5C 439.353,464.315 428.853,480.149 409.5,490C 406.226,491.202 402.893,492.202 399.5,493C 367.202,494.456 334.869,494.956 302.5,494.5C 302.5,450.833 302.5,407.167 302.5,363.5C 271.167,363.5 239.833,363.5 208.5,363.5C 208.5,407.167 208.5,450.833 208.5,494.5C 176.131,494.956 143.798,494.456 111.5,493C 98.4258,490.051 87.9258,483.218 80,472.5C 73.8719,463.449 70.5385,453.449 70,442.5C 69.3333,400.167 69.3333,357.833 70,315.5C 70.2895,313.048 70.9562,310.715 72,308.5C 131.114,248.885 190.614,189.885 250.5,131.5 Z"/></g>
</svg>
