<?xml version="1.0" encoding="UTF-8"?>
<svg version="1.1" xmlns="http://www.w3.org/2000/svg" width="512" height="512">
<path d="M0 0 C21.63717587 19.96079329 35.91175842 45.50613698 42.40234375 74.17578125 C42.64855469 75.25085938 42.89476562 76.3259375 43.1484375 77.43359375 C46.47584352 95.74580067 45.74509229 116.09985197 41.40234375 134.17578125 C41.1688623 135.19526855 41.1688623 135.19526855 40.93066406 136.23535156 C33.37100748 168.26958496 12.62576514 197.7986554 -14.59765625 216.17578125 C-14.06140625 216.38332031 -13.52515625 216.59085938 -12.97265625 216.8046875 C10.41580854 225.99850836 29.99539168 236.81793007 48.40234375 254.17578125 C49.41361328 255.10777344 49.41361328 255.10777344 50.4453125 256.05859375 C56.5133168 261.848027 61.46624198 268.42468673 66.40234375 275.17578125 C66.96695312 275.93375 67.5315625 276.69171875 68.11328125 277.47265625 C71.3340004 282.12687468 72.75111172 286.47239919 72.40234375 292.17578125 C70.85367183 297.42405831 68.94510156 300.14727605 64.40234375 303.17578125 C62.00167877 304.37611374 60.33142555 304.41115617 57.65234375 304.48828125 C56.811875 304.52566406 55.97140625 304.56304687 55.10546875 304.6015625 C49.84670336 303.77323096 46.62695181 300.69162508 43.5 296.59375 C42.48302458 295.18738004 41.47156863 293.777007 40.46484375 292.36328125 C30.66317795 279.13103241 19.57127735 267.71411846 5.40234375 259.17578125 C4.83080566 258.82966797 4.25926758 258.48355469 3.67041016 258.12695312 C-19.33620586 244.41766095 -44.41285931 241.03101539 -70.7734375 240.97265625 C-71.64272573 240.96982887 -72.51201397 240.9670015 -73.40764427 240.96408844 C-78.01598785 240.94916075 -82.62430069 240.93989305 -87.23266602 240.93554688 C-90.99806485 240.9311765 -94.7632327 240.91733206 -98.52856445 240.89453125 C-139.57226658 240.65098858 -177.52495499 243.3113884 -209.59765625 272.17578125 C-210.55800781 273.036875 -211.51835937 273.89796875 -212.5078125 274.78515625 C-226.85331401 288.42447977 -237.5440289 305.48343691 -243.97265625 324.17578125 C-244.19928955 324.82587158 -244.42592285 325.47596191 -244.65942383 326.14575195 C-248.90882159 339.43410937 -250.11842319 353.01455666 -250.04370117 366.88183594 C-250.03503608 369.33479865 -250.06436359 371.78553746 -250.09570312 374.23828125 C-250.09731219 375.82421807 -250.09674327 377.41015894 -250.09375 378.99609375 C-250.10498398 379.71596466 -250.11621796 380.43583557 -250.12779236 381.17752075 C-250.05201697 386.71363864 -248.75820453 389.77570281 -245.59765625 394.17578125 C-242.37213092 396.64544552 -239.46689656 397.64861548 -235.50390625 398.38671875 C-234.49320068 398.5770166 -233.48249512 398.76731445 -232.44116211 398.96337891 C-231.33780518 399.15722168 -230.23444824 399.35106445 -229.09765625 399.55078125 C-227.92275635 399.76138184 -226.74785645 399.97198242 -225.53735352 400.18896484 C-188.30633688 406.67751745 -150.5064158 410.77908307 -112.70703125 411.34765625 C-110.88882312 411.38138362 -109.07062659 411.41574129 -107.25244141 411.45068359 C-103.61148843 411.52027128 -99.97099282 411.56969703 -96.32958984 411.60791016 C-94.62987039 411.63764437 -92.93016255 411.66805265 -91.23046875 411.69921875 C-90.45000183 411.70242126 -89.66953491 411.70562378 -88.86541748 411.70892334 C-84.06811031 411.81714511 -80.76835772 412.56547718 -76.59765625 415.17578125 C-72.15183704 420.10222957 -71.24678643 423.12716905 -71.3125 429.6328125 C-71.83338881 434.27799897 -74.25654838 436.99723191 -77.66015625 439.98828125 C-81.44184858 442.30609268 -84.6540457 442.3158934 -88.9921875 442.34375 C-89.63843582 442.34798477 -90.28468414 442.35221954 -90.95051575 442.35658264 C-93.10379278 442.36661963 -95.25685942 442.36646042 -97.41015625 442.36328125 C-98.15972595 442.362677 -98.90929565 442.36207275 -99.68157959 442.3614502 C-138.45385675 442.27773303 -177.15441659 439.03002808 -215.47265625 433.17578125 C-216.2611496 433.05626099 -217.04964294 432.93674072 -217.86203003 432.81359863 C-226.40524249 431.50490854 -234.88961399 429.99027476 -243.33984375 428.171875 C-244.07613007 428.01738892 -244.81241638 427.86290283 -245.5710144 427.70373535 C-257.79694399 424.97914294 -267.0290836 418.18671859 -273.98828125 407.87109375 C-279.04141927 399.40831406 -280.74610578 391.41319128 -280.80078125 381.640625 C-280.80779556 380.81350006 -280.81480988 379.98637512 -280.82203674 379.13418579 C-280.83955082 376.46049579 -280.84589393 373.7870266 -280.84765625 371.11328125 C-280.84833099 370.20528778 -280.84900574 369.29729431 -280.84970093 368.36178589 C-280.83438801 355.44412423 -280.69253126 342.78874382 -277.59765625 330.17578125 C-277.42073242 329.45036133 -277.24380859 328.72494141 -277.06152344 327.97753906 C-267.07616873 288.570742 -243.17411346 254.79216054 -208.59765625 233.17578125 C-197.43104379 226.61337197 -186.00635251 220.95052751 -173.59765625 217.17578125 C-173.59765625 216.51578125 -173.59765625 215.85578125 -173.59765625 215.17578125 C-175.00443648 213.92763794 -176.47645329 212.75269735 -177.97265625 211.61328125 C-207.73670877 188.25415142 -226.54746983 155.57100663 -231.15625 117.8515625 C-234.75274856 83.6179566 -226.28960957 47.56852467 -205.015625 20.12890625 C-199.85669721 13.82818022 -194.43266733 7.85723941 -188.59765625 2.17578125 C-188.14777344 1.68078125 -187.69789063 1.18578125 -187.234375 0.67578125 C-168.55820141 -19.34433536 -140.14110423 -30.60497554 -113.59765625 -34.82421875 C-112.78941406 -34.95570312 -111.98117188 -35.0871875 -111.1484375 -35.22265625 C-70.63925299 -40.45420887 -30.15844897 -27.06309428 0 0 Z M-139.59765625 4.17578125 C-140.69335938 4.68882813 -141.7890625 5.201875 -142.91796875 5.73046875 C-167.42230249 18.0712055 -185.97415014 39.61991488 -195.59765625 65.17578125 C-204.68911091 92.75215233 -204.25297557 122.71097748 -191.59765625 149.17578125 C-176.81793574 177.85169043 -152.82022887 197.15316241 -122.390625 207.16796875 C-93.78857733 214.76768893 -64.46228503 210.3973209 -38.796875 196.125 C-33.42470049 192.85184361 -28.48944038 189.12232642 -23.59765625 185.17578125 C-22.81777344 184.5621875 -22.03789062 183.94859375 -21.234375 183.31640625 C-1.84181425 167.19612484 11.58550859 141.12679984 14.40234375 116.17578125 C15.33557785 102.07381648 15.37557157 87.82574135 11.40234375 74.17578125 C11.06203125 72.95375 10.72171875 71.73171875 10.37109375 70.47265625 C3.04794162 46.42500803 -13.09662778 24.45384586 -34.59765625 11.17578125 C-35.89316406 10.32113281 -35.89316406 10.32113281 -37.21484375 9.44921875 C-67.87092952 -9.82759973 -107.09896999 -11.07870414 -139.59765625 4.17578125 Z " fill="currentColor" transform="translate(331.59765625,52.82421875)"/>
<path d="M0 0 C0.61966644 0.56607468 1.23933289 1.13214935 1.8777771 1.71537781 C2.57300476 2.34859955 3.26823242 2.98182129 3.98452759 3.63423157 C7.46299522 6.9182146 10.88456716 10.25223765 14.26986694 13.63212585 C15.00846954 14.36740005 15.74707214 15.10267426 16.50805664 15.86022949 C18.05382358 17.40097166 19.59827328 18.94303641 21.14144897 20.4863739 C23.50567425 22.84839328 25.8778111 25.20227448 28.25033569 27.55595398 C29.75733464 29.06002195 31.26386203 30.56456257 32.76986694 32.06962585 C33.47815643 32.77072983 34.18644592 33.4718338 34.91619873 34.19418335 C35.5709317 34.85199295 36.22566467 35.50980255 36.90023804 36.18754578 C37.47567352 36.76155624 38.05110901 37.33556671 38.64398193 37.92697144 C41.89298121 41.71966286 42.71883866 45.20764099 42.53735352 50.11047363 C41.2698467 57.85459709 33.93906133 64.2911698 28.59799194 69.60868835 C27.89298553 70.31893661 27.18797913 71.02918488 26.46160889 71.76095581 C24.98121076 73.2477294 23.49699542 74.73071121 22.00912476 76.21000671 C19.74693339 78.46365506 17.50409769 80.73540585 15.26205444 83.00907898 C13.81266512 84.46007991 12.36218071 85.90998796 10.91049194 87.35868835 C10.24876984 88.03164444 9.58704773 88.70460052 8.90527344 89.39794922 C3.78449523 94.44375211 -1.23046825 98.21136889 -8.50357056 99.0891571 C-13.60709291 98.42758939 -16.69111518 96.93539264 -20.19107056 93.1516571 C-23.03419839 88.93961587 -23.61111196 84.63119447 -22.87857056 79.6516571 C-20.86175159 74.92530359 -18.38329209 71.82502585 -14.69107056 68.2766571 C-13.79001587 67.40267273 -12.88896118 66.52868835 -11.96060181 65.6282196 C-11.27353149 64.97595398 -10.58646118 64.32368835 -9.87857056 63.6516571 C-10.42964289 63.65019054 -10.98071522 63.64872398 -11.54848671 63.64721298 C-24.96982792 63.61012867 -38.3909138 63.55084077 -51.81205177 63.46775436 C-58.30249672 63.42824329 -64.79280525 63.39607242 -71.28335571 63.38066101 C-77.54696785 63.36551866 -83.81020503 63.33111535 -90.07365036 63.28334808 C-92.46341061 63.26850944 -94.85322438 63.26061467 -97.24303055 63.25977325 C-100.5902124 63.25740943 -103.93635314 63.23037493 -107.28335571 63.19755554 C-108.76581787 63.20510109 -108.76581787 63.20510109 -110.27822876 63.21279907 C-117.26423303 63.10680405 -120.55653384 61.74458784 -125.69107056 56.9641571 C-128.26688982 51.94808801 -128.3293426 47.17927346 -126.75357056 41.8391571 C-124.43737186 37.90161932 -121.94292249 35.68383307 -117.87857056 33.6516571 C-116.43445262 33.54804999 -114.9857459 33.50519565 -113.53796387 33.49343872 C-112.17074692 33.47875549 -112.17074692 33.47875549 -110.77590942 33.46377563 C-109.27187561 33.45514244 -109.27187561 33.45514244 -107.73745728 33.44633484 C-106.15694077 33.43148544 -106.15694077 33.43148544 -104.54449463 33.41633606 C-101.04910558 33.38465709 -97.55370292 33.35993835 -94.05825806 33.33525085 C-91.63972615 33.31468685 -89.22119788 33.29369053 -86.80267334 33.27227783 C-80.42732688 33.21699998 -74.05194768 33.16761592 -67.67654419 33.11943054 C-61.17484614 33.06925719 -54.67319583 33.01354941 -48.17153931 32.95829773 C-35.40725741 32.85064629 -22.6429348 32.74902906 -9.87857056 32.6516571 C-10.64942993 31.90400085 -11.42028931 31.1563446 -12.21450806 30.3860321 C-13.22779412 29.3915106 -14.2408003 28.39670388 -15.25357056 27.4016571 C-15.76146118 26.91052429 -16.26935181 26.41939148 -16.79263306 25.91337585 C-20.80151613 21.95724124 -23.15250535 19.02912807 -23.25357056 13.3391571 C-23.13076107 8.36946667 -21.83019333 5.64033653 -18.87857056 1.6516571 C-13.34123046 -2.50134797 -6.0333756 -4.33045173 0 0 Z " fill="currentColor" transform="translate(418.8785705566406,396.3483428955078)"/>
</svg>
