<?xml version="1.0" encoding="UTF-8"?>
<!DOCTYPE svg PUBLIC "-//W3C//DTD SVG 1.1//EN" "http://www.w3.org/Graphics/SVG/1.1/DTD/svg11.dtd">
<svg xmlns="http://www.w3.org/2000/svg" version="1.1" width="512px" height="512px" style="shape-rendering:geometricPrecision; text-rendering:geometricPrecision; image-rendering:optimizeQuality; fill-rule:evenodd; clip-rule:evenodd" xmlns:xlink="http://www.w3.org/1999/xlink">
<g><path style="opacity:0.991" fill="#000000" d="M 221.5,31.5 C 275.158,27.2471 316.325,47.5804 345,92.5C 368.847,138.924 366.513,183.924 338,227.5C 303.393,270.816 258.893,286.316 204.5,274C 162.66,261.493 134.493,234.659 120,193.5C 105.63,141.483 118.13,96.9832 157.5,60C 176.32,44.7549 197.653,35.2549 221.5,31.5 Z"/></g>
<g><path style="opacity:0.988" fill="#000000" d="M 157.5,284.5 C 164.659,287.075 171.659,290.242 178.5,294C 225.853,312.695 271.687,309.528 316,284.5C 357.068,298.735 385.568,326.068 401.5,366.5C 383.26,371.405 372.26,383.072 368.5,401.5C 345.498,401.333 322.498,401.5 299.5,402C 272.679,408.823 260.845,425.99 264,453.5C 266.407,463.833 271.907,472 280.5,478C 214.939,482.339 149.939,478.006 85.5,465C 68.3541,456.544 61.3541,442.711 64.5,423.5C 64.9563,356.433 95.9563,310.099 157.5,284.5 Z"/></g>
<g><path style="opacity:0.972" fill="#000000" d="M 408.5,393.5 C 411.988,393.705 415.321,394.539 418.5,396C 431.667,409.167 444.833,422.333 458,435.5C 461.73,442.595 461.064,449.261 456,455.5C 443.804,468.03 431.304,480.196 418.5,492C 403.087,497.251 395.587,491.751 396,475.5C 399.338,469.151 403.838,463.651 409.5,459C 373.167,458.667 336.833,458.333 300.5,458C 291.71,453.702 288.877,446.868 292,437.5C 293.892,433.942 296.725,431.442 300.5,430C 336.833,429.667 373.167,429.333 409.5,429C 405.667,425.167 401.833,421.333 398,417.5C 392.73,405.437 396.23,397.437 408.5,393.5 Z"/></g>
</svg>
