<?xml version="1.0" encoding="UTF-8"?>
<!DOCTYPE svg PUBLIC "-//W3C//DTD SVG 1.1//EN" "http://www.w3.org/Graphics/SVG/1.1/DTD/svg11.dtd">
<svg xmlns="http://www.w3.org/2000/svg" version="1.1" width="512px" height="512px" style="shape-rendering:geometricPrecision; text-rendering:geometricPrecision; image-rendering:optimizeQuality; fill-rule:evenodd; clip-rule:evenodd" xmlns:xlink="http://www.w3.org/1999/xlink">
<g><path style="opacity:0.992" fill="#fefffe" d="M -0.5,-0.5 C 27.8333,-0.5 56.1667,-0.5 84.5,-0.5C 92.2978,16.263 99.9644,33.0963 107.5,50C 235.833,50.3333 364.167,50.6667 492.5,51C 502.238,53.2415 508.571,59.0748 511.5,68.5C 511.5,73.5 511.5,78.5 511.5,83.5C 478.267,140.953 445.767,198.953 414,257.5C 406.034,270.458 394.534,278.291 379.5,281C 313.5,281.333 247.5,281.667 181.5,282C 173.433,296.635 165.766,311.468 158.5,326.5C 158.876,328.383 159.876,329.883 161.5,331C 261.166,331.5 360.833,331.667 460.5,331.5C 460.5,348.833 460.5,366.167 460.5,383.5C 354.499,383.667 248.499,383.5 142.5,383C 113.559,374.309 100.059,354.809 102,324.5C 103.224,317.269 105.224,310.269 108,303.5C 119.374,283.918 130.874,264.418 142.5,245C 111.872,180.909 81.3717,116.743 51,52.5C 33.9104,51.5081 16.7437,51.1747 -0.5,51.5C -0.5,34.1667 -0.5,16.8333 -0.5,-0.5 Z"/></g>
<g><path style="opacity:0.978" fill="#fefffe" d="M 163.5,511.5 C 156.5,511.5 149.5,511.5 142.5,511.5C 113.676,502.56 100.176,482.893 102,452.5C 110.529,419.66 131.696,405.494 165.5,410C 197.426,421.68 209.593,444.18 202,477.5C 194.664,495.224 181.83,506.557 163.5,511.5 Z"/></g>
<g><path style="opacity:0.978" fill="#fefffe" d="M 419.5,511.5 C 412.5,511.5 405.5,511.5 398.5,511.5C 369.676,502.56 356.176,482.893 358,452.5C 366.529,419.66 387.696,405.494 421.5,410C 453.426,421.68 465.593,444.18 458,477.5C 450.664,495.224 437.83,506.557 419.5,511.5 Z"/></g>
</svg>
