<?xml version="1.0" encoding="UTF-8"?>
<svg version="1.1" xmlns="http://www.w3.org/2000/svg" width="512" height="512">
<path d="M0 0 C0.8962207 0.21430664 1.79244141 0.42861328 2.71582031 0.64941406 C45.34171461 11.12669112 84.29760513 36.04413763 111 71 C111.44424316 71.57363281 111.88848633 72.14726563 112.34619141 72.73828125 C130.09727411 95.8786292 141.682223 122.63822363 148 151 C148.16516113 151.70979004 148.33032227 152.41958008 148.50048828 153.15087891 C153.83302959 177.07838329 153.40682356 206.13760151 148 230 C147.83371094 230.79212891 147.66742188 231.58425781 147.49609375 232.40039062 C142.07299392 258.00947316 131.56061237 286.01657299 114.21875 306.05859375 C112.78324292 307.89229699 112.78324292 307.89229699 113.23313904 309.90936279 C114.13172298 312.35910678 115.19932207 313.56168299 117.05102539 315.39160156 C117.69161392 316.0319635 118.33220245 316.67232544 118.99220276 317.33209229 C120.03440224 318.35106598 120.03440224 318.35106598 121.09765625 319.390625 C121.80651474 320.09523865 122.51537323 320.79985229 123.24571228 321.52581787 C125.5110328 323.77434785 127.78656208 326.01222238 130.0625 328.25 C131.60029335 329.77274708 133.13741131 331.29617654 134.67382812 332.8203125 C138.44141802 336.5548281 142.21744265 340.2806485 146 344 C148.88569129 342.70265139 150.12013073 341.85984748 152.25 339.375 C155.20723147 336.82102737 156.99416717 336.12421434 160.91787624 336.39564228 C163.43829429 337.1272194 164.69222435 338.15173294 166.6264801 339.91972351 C167.67294047 340.87566941 167.67294047 340.87566941 168.74054146 341.85092735 C172.94488916 345.84987156 177.06553182 349.92706174 181.16381836 354.03442383 C182.15823125 355.02747871 183.1528561 356.02032138 184.14767456 357.01296997 C186.82513044 359.68590265 189.49945686 362.36194532 192.17305827 365.03873277 C194.97776512 367.84598556 197.78492699 370.65078175 200.59169006 373.45597839 C205.29640483 378.15887977 209.99901993 382.86387293 214.70043945 387.57006836 C220.13821586 393.0133048 225.57961094 398.45290389 231.02286237 403.89066488 C235.70339684 408.56666715 240.38198717 413.24460794 245.05894572 417.92418689 C247.84959736 420.71639828 250.64092215 423.50792771 253.43400383 426.29770851 C256.05382771 428.91465151 258.6712081 431.53401374 261.28669357 434.15529251 C262.70774639 435.5783047 264.13127117 436.99884697 265.55485535 438.41932678 C266.81431976 439.68302094 266.81431976 439.68302094 268.09922791 440.97224426 C268.83272429 441.70611768 269.56622068 442.43999109 270.32194424 443.1961031 C273.01263897 446.08857902 273.64794703 448.70292749 273.59719849 452.67724609 C272.79240344 455.80742959 271.27812423 457.31655501 269.06982422 459.6640625 C268.24996033 460.54030273 267.43009644 461.41654297 266.58538818 462.31933594 C262.51252473 466.54229122 258.41144193 470.73136853 254.2578125 474.875 C252.92253006 476.21171753 252.92253006 476.21171753 251.56027222 477.57543945 C249.22567184 479.91088586 246.88868117 482.24390749 244.55084229 484.57611084 C242.63717911 486.48715267 240.72726118 488.40191661 238.81729317 490.31665039 C236.52905826 492.60936094 234.23702508 494.89826641 231.9453125 497.1875 C231.0922049 498.04263184 230.23909729 498.89776367 229.36013794 499.77880859 C228.56856293 500.56723145 227.77698792 501.3556543 226.96142578 502.16796875 C225.91959641 503.20860474 225.91959641 503.20860474 224.85671997 504.27026367 C221.43798424 507.45518734 218.87786147 508.63893364 214.15292454 508.49815655 C211.51198964 507.88708125 210.35497237 506.92185874 208.3657074 505.09199524 C207.66919508 504.45300608 206.97268276 503.81401691 206.25506401 503.15566444 C202.06053137 499.14602001 197.93472704 495.07319769 193.83618164 490.96557617 C192.84176875 489.97252129 191.8471439 488.97967862 190.85232544 487.98703003 C188.17486956 485.31409735 185.50054314 482.63805468 182.82694173 479.96126723 C180.02223488 477.15401444 177.21507301 474.34921825 174.40830994 471.54402161 C169.70359517 466.84112023 165.00098007 462.13612707 160.29956055 457.42993164 C154.86178414 451.9866952 149.42038906 446.54709611 143.97713763 441.10933512 C139.29660316 436.43333285 134.61801283 431.75539206 129.94105428 427.07581311 C127.15040264 424.28360172 124.35907785 421.49207229 121.56599617 418.70229149 C118.94617229 416.08534849 116.3287919 413.46598626 113.71330643 410.84470749 C112.29225361 409.4216953 110.86872883 408.00115303 109.44514465 406.58067322 C108.18568024 405.31697906 108.18568024 405.31697906 106.90077209 404.02775574 C106.16727571 403.29388232 105.43377932 402.56000891 104.67805576 401.8038969 C101.90847334 398.82661732 101.5 396.24354167 101.5 392.17578125 C102.4519692 388.03322778 105.81706734 385.59831237 109 383 C107.67624661 380.07706992 106.23343726 377.97170904 103.99072266 375.68432617 C103.38314117 375.06075729 102.77555969 374.43718842 102.14956665 373.79472351 C101.49435028 373.13414444 100.83913391 372.47356537 100.1640625 371.79296875 C99.4883017 371.10817947 98.81254089 370.4233902 98.11630249 369.71784973 C96.68834807 368.27540923 95.25758369 366.83574579 93.82421875 365.39868164 C91.6277252 363.19024003 89.4505715 360.96383599 87.2734375 358.73632812 C85.88396432 357.33739669 84.49337666 355.93957114 83.1015625 354.54296875 C82.12481064 353.53691841 82.12481064 353.53691841 81.12832642 352.51054382 C80.51444061 351.90273575 79.90055481 351.29492767 79.26806641 350.66870117 C78.73226959 350.12783371 78.19647278 349.58696625 77.6444397 349.02970886 C76.033811 347.78542279 76.033811 347.78542279 73.97470093 348.2167511 C70.90403081 349.43470717 68.36283232 351.41031584 65.6875 353.3125 C33.10424579 375.60609069 -4.38017313 386.49494586 -43.6875 386.3125 C-44.525159 386.31034485 -45.36281799 386.3081897 -46.2258606 386.30596924 C-58.71140727 386.25446158 -70.7901525 385.82116676 -83 383 C-84.34408936 382.70198486 -84.34408936 382.70198486 -85.71533203 382.39794922 C-130.43936606 372.283332 -171.02368352 347.62354157 -199 311 C-199.44424316 310.42636719 -199.88848633 309.85273438 -200.34619141 309.26171875 C-219.34008535 284.50123951 -231.46967249 255.62331693 -237 225 C-237.18546387 223.98083496 -237.37092773 222.96166992 -237.56201172 221.91162109 C-239.20903619 211.81055663 -239.39876778 201.83182262 -239.375 191.625 C-239.37445618 190.74460052 -239.37391235 189.86420105 -239.37335205 188.9571228 C-239.33280617 174.64686001 -238.41339475 160.94971827 -235 147 C-234.78569336 146.1037793 -234.57138672 145.20755859 -234.35058594 144.28417969 C-223.44366685 99.910324 -196.97601101 59.91014949 -160 33 C-159.43651855 32.58685547 -158.87303711 32.17371094 -158.29248047 31.74804688 C-136.02297189 15.62867789 -110.73879484 4.96748041 -84 -1 C-82.94329102 -1.2477417 -82.94329102 -1.2477417 -81.86523438 -1.50048828 C-56.19165314 -7.27405876 -25.42258433 -6.22072175 0 0 Z M-93 19 C-93.68562012 19.18933105 -94.37124023 19.37866211 -95.07763672 19.57373047 C-120.20736325 26.74360154 -142.35836729 40.01880946 -162 57 C-162.98097656 57.83917969 -163.96195313 58.67835937 -164.97265625 59.54296875 C-170.10142296 64.03740835 -174.67570847 68.73489455 -179 74 C-179.89191721 75.04427927 -180.78384522 76.08854931 -181.67578125 77.1328125 C-199.0434964 97.78925891 -211.84610613 122.67661765 -218 149 C-218.19319824 149.77520996 -218.38639648 150.55041992 -218.58544922 151.34912109 C-224.82445984 177.16589238 -224.59947005 207.2908073 -218 233 C-217.81808105 233.71623535 -217.63616211 234.4324707 -217.44873047 235.17041016 C-216.20599413 239.87370629 -214.68217565 244.43731311 -213 249 C-212.71640625 249.77939941 -212.4328125 250.55879883 -212.140625 251.36181641 C-204.18163626 272.95816137 -192.9499897 291.48715492 -178 309 C-177.319375 309.804375 -176.63875 310.60875 -175.9375 311.4375 C-171.62289451 316.42626259 -167.05566193 320.77661867 -162 325 C-161.15050781 325.74894531 -160.30101562 326.49789063 -159.42578125 327.26953125 C-131.05249802 351.8493878 -91.70117681 368.82826495 -53.8984375 369.23828125 C-53.14774994 369.24802979 -52.39706238 369.25777832 -51.62362671 369.26782227 C-35.02816588 369.43900876 -19.16592026 369.2128319 -3 365 C-2.26555664 364.81808105 -1.53111328 364.63616211 -0.77441406 364.44873047 C30.81893274 356.50424618 58.62940617 340.4323229 81.578125 317.4140625 C83.02413908 315.97271298 84.49154969 314.55165292 86 313.17578125 C114.10298074 286.99390271 132.58907261 243.2491935 134.16113281 205.08862305 C134.18061771 203.72972255 134.19440481 202.37073096 134.203125 201.01171875 C134.21371445 199.90701736 134.21371445 199.90701736 134.22451782 198.77999878 C134.49610894 176.21565665 134.49610894 176.21565665 131 154 C130.70198486 152.77216797 130.70198486 152.77216797 130.39794922 151.51953125 C121.3043706 115.06347675 102.4246359 80.11384796 73 56 C72.48195801 55.56429687 71.96391602 55.12859375 71.43017578 54.6796875 C25.73408064 16.28521497 -35.43059002 3.02237702 -93 19 Z M96.6171875 326.1875 C95.25980469 327.5796875 95.25980469 327.5796875 93.875 329 C92.96492188 329.928125 92.05484375 330.85625 91.1171875 331.8125 C90.41851562 332.534375 89.71984375 333.25625 89 334 C90.32994383 336.95265112 91.77779316 339.02350216 94.07275391 341.29980469 C94.69324615 341.92014587 95.3137384 342.54048706 95.95303345 343.17962646 C96.62079803 343.83706848 97.28856262 344.4945105 97.9765625 345.171875 C98.66181 345.8542926 99.3470575 346.53671021 100.05307007 347.23980713 C102.23905845 349.41461598 104.43190429 351.58236072 106.625 353.75 C108.10983255 355.2247999 109.59421306 356.70005506 111.078125 358.17578125 C114.7135291 361.78915448 118.35509824 365.39620853 122 369 C125.41059403 367.39464713 127.61792484 365.59481099 130.25 362.875 C130.95640625 362.15054688 131.6628125 361.42609375 132.390625 360.6796875 C132.92171875 360.12539063 133.4528125 359.57109375 134 359 C132.67365058 356.06254084 131.2306634 353.97856521 128.95898438 351.70019531 C128.34494751 351.07985413 127.73091064 350.45951294 127.0982666 349.82037354 C126.43677612 349.16293152 125.77528564 348.5054895 125.09375 347.828125 C124.41324585 347.1457074 123.7327417 346.46328979 123.03161621 345.76019287 C121.59498803 344.32220573 120.15583915 342.88673308 118.71435547 341.45361328 C116.50123571 339.25122972 114.29901528 337.03835067 112.09765625 334.82421875 C110.70116197 333.42904546 109.30404773 332.03449238 107.90625 330.640625 C106.91401428 329.64231659 106.91401428 329.64231659 105.9017334 328.62384033 C105.28769653 328.01610779 104.67365967 327.40837524 104.04101562 326.78222656 C103.50077759 326.24357971 102.96053955 325.70493286 102.40393066 325.14996338 C99.77255434 322.99459596 99.03889853 323.96428988 96.6171875 326.1875 Z M156.43075562 359.32873535 C155.8134256 359.95050659 155.19609558 360.57227783 154.56005859 361.21289062 C153.85948334 361.91361694 153.15890808 362.61434326 152.43710327 363.33630371 C151.68184357 364.10188599 150.92658386 364.86746826 150.1484375 365.65625 C149.37440582 366.43311157 148.60037415 367.20997314 147.80288696 368.01037598 C145.3222116 370.50228149 142.84856493 373.00103814 140.375 375.5 C138.69837373 377.18665239 137.02129624 378.87285637 135.34375 380.55859375 C131.22390912 384.7005326 127.10982408 388.84812314 123 393 C124.4253282 396.24521921 126.15405742 398.40153915 128.65725708 400.89776611 C129.79729187 402.0419249 129.79729187 402.0419249 130.96035767 403.209198 C131.79473358 404.03638336 132.6291095 404.86356873 133.48876953 405.71582031 C134.36688293 406.59422577 135.24499634 407.47263123 136.14971924 408.37765503 C138.55503431 410.78181611 140.9646992 413.18145536 143.37640619 415.57919407 C145.89708199 418.08736128 148.41208935 420.60119926 150.92770386 423.11444092 C155.69062818 427.87115086 160.45862747 432.62273986 165.22847164 437.37250972 C170.65920388 442.7808817 176.08425334 448.19493866 181.50883317 453.60948038 C192.66624475 464.7459909 203.83077048 475.87534142 215 487 C218.01657514 485.55414497 220.11993351 484.12529778 222.48339844 481.74365234 C223.14378113 481.08311859 223.80416382 480.42258484 224.48455811 479.74203491 C225.18574768 479.03052277 225.88693726 478.31901062 226.609375 477.5859375 C227.69958954 476.49147812 227.69958954 476.49147812 228.81182861 475.37490845 C231.12929198 473.0462612 233.4396995 470.71075174 235.75 468.375 C237.32115444 466.79381347 238.89276371 465.21307875 240.46484375 463.6328125 C244.31518653 459.7604331 248.15976117 455.88239829 252 452 C250.57580638 448.76089586 248.85033282 446.59921833 246.35620117 444.10223389 C245.5990683 443.33946136 244.84193542 442.57668884 244.06185913 441.790802 C243.23062531 440.96361664 242.39939148 440.13643127 241.54296875 439.28417969 C240.66806793 438.40577423 239.79316711 437.52736877 238.89175415 436.62234497 C236.49473022 434.21802943 234.09329427 431.81829839 231.68945694 429.42080593 C229.17563656 426.91205017 226.6667007 424.39841724 224.15698242 421.88555908 C219.94385886 417.66879857 215.72653901 413.45626942 211.50683594 409.24609375 C206.62359421 404.37375016 201.74761835 399.49422419 196.87532711 394.61093211 C192.69382663 390.42036786 188.5084565 386.23369846 184.31980228 382.05028462 C181.81710849 379.55071373 179.31579725 377.04979959 176.81796265 374.54537201 C174.0366832 371.75726442 171.24731058 368.97734434 168.45703125 366.19824219 C167.62579742 365.3629599 166.7945636 364.52767761 165.93814087 363.66708374 C165.181008 362.91559052 164.42387512 362.16409729 163.64379883 361.38983154 C162.9845491 360.73133587 162.32529938 360.07284019 161.64607239 359.39439011 C159.43685633 357.52296025 158.65101402 357.44876314 156.43075562 359.32873535 Z " fill="#000000" transform="translate(239,4)"/>
<path d="M0 0 C0.62036133 0.29600098 1.24072266 0.59200195 1.87988281 0.89697266 C17.43590089 8.38376139 30.66539718 19.01631049 43 31 C43.82661133 31.79265259 43.82661133 31.79265259 44.66992188 32.60131836 C73.15758209 60.37050534 88.43048122 100.88639296 89.16650391 140.25927734 C89.57750466 185.34510385 71.80114213 225.16812414 40.875 257.5 C16.36453708 281.38466386 -16.07341348 296.72186739 -50 301 C-50.83789062 301.11085938 -51.67578125 301.22171875 -52.5390625 301.3359375 C-93.39180593 305.90255837 -135.32033079 294.07299874 -167.6484375 268.70654297 C-186.29553831 253.74180684 -201.15113139 236.34520585 -212 215 C-212.55171875 213.92492187 -213.1034375 212.84984375 -213.671875 211.7421875 C-231.84438335 174.36677085 -233.89093201 130.65996855 -220.83691406 91.38232422 C-218.61711829 85.06354734 -215.94287395 79.01117674 -213 73 C-212.70399902 72.37963867 -212.40799805 71.75927734 -212.10302734 71.12011719 C-205.05580066 56.47741929 -195.21302535 43.71450233 -184 32 C-182.90365234 30.80890625 -182.90365234 30.80890625 -181.78515625 29.59375 C-135.85757714 -18.70280574 -58.78105624 -28.77726723 0 0 Z M-175.25 47.375 C-200.72622161 76.52046465 -214.09378639 113.18615338 -212 152 C-209.00927168 187.56758776 -194.13418549 219.63680143 -169 245 C-168.67 245 -168.34 245 -168 245 C-167.99413376 244.26243469 -167.98826752 243.52486938 -167.98222351 242.76495361 C-167.92396302 235.76359756 -167.85170035 228.76255203 -167.76428509 221.76150894 C-167.7198381 218.16345778 -167.68052826 214.56551318 -167.65356445 210.96728516 C-167.62727163 207.48517426 -167.58669388 204.00347932 -167.53681374 200.52162933 C-167.51237196 198.56784061 -167.50216808 196.6138901 -167.49235535 194.65997314 C-167.26472913 180.6262465 -164.41162812 168.87985135 -154.875 158.25 C-143.94323393 148.0196083 -129.462283 146.15468004 -115.15625 146.4765625 C-108.59343922 146.90806975 -103.35609522 149.32395102 -97.55859375 152.24609375 C-82.33206822 159.750715 -65.07821989 159.27865345 -49 155 C-43.73620179 153.15796869 -38.74091591 150.87886818 -33.765625 148.3671875 C-29.34767711 146.49498219 -25.05091479 146.54667165 -20.3125 146.625 C-19.42836426 146.63515137 -18.54422852 146.64530273 -17.63330078 146.65576172 C-4.61829063 146.96297788 5.94020972 150.32409406 15.75 159.125 C26.04514183 170.12595533 27.28579204 183.92173045 27.4140625 198.22265625 C27.43280968 199.5774397 27.45238563 200.93221191 27.4727478 202.28697205 C27.52370076 205.8230013 27.56352141 209.35906827 27.60089111 212.89526367 C27.64116414 216.51555422 27.69214917 220.13569296 27.7421875 223.75585938 C27.8385094 230.83712796 27.92305157 237.9184922 28 245 C33.57113138 240.63429123 37.69110329 235.58190278 42 230 C42.41475586 229.46552246 42.82951172 228.93104492 43.25683594 228.38037109 C65.99809436 198.75712043 75.52059683 161.17398693 70.875 124.25 C66.98752616 96.43109279 55.56080325 71.080225 37 50 C36.20851563 49.07574219 35.41703125 48.15148437 34.6015625 47.19921875 C11.75340673 21.14367203 -23.62402092 3.48713649 -58.328125 1.09375 C-59.20984375 1.0628125 -60.0915625 1.031875 -61 1 C-62.91039062 0.92265625 -62.91039062 0.92265625 -64.859375 0.84375 C-107.10604679 -0.29984743 -146.32558422 16.69895034 -175.25 47.375 Z M-145 172 C-149.6417026 178.63429454 -151.09725048 184.09191872 -151.2722168 192.13598633 C-151.28842575 192.84709061 -151.3046347 193.55819489 -151.32133484 194.29084778 C-151.46123247 200.83009287 -151.53959622 207.37063107 -151.60025311 213.91104603 C-151.64126449 218.30027987 -151.70174598 222.68728917 -151.80932617 227.07543945 C-151.9131926 231.32727134 -151.96766937 235.57711876 -151.98771095 239.83014488 C-152.00361621 241.44624729 -152.03678619 243.06227908 -152.08786583 244.67765236 C-152.60988553 253.7050467 -152.60988553 253.7050467 -148.83641052 261.51278687 C-146.28953218 263.32421197 -143.83496476 264.69718525 -141 266 C-139.7486884 266.72017564 -138.50122387 267.44718877 -137.26171875 268.1875 C-136.07681951 268.8043306 -134.885169 269.40834538 -133.6875 270 C-133.02435791 270.32830811 -132.36121582 270.65661621 -131.67797852 270.99487305 C-98.20623781 286.96575173 -60.23079734 289.35651959 -25 278 C-12.92049155 273.68962365 1.71576586 268.28423414 11 259 C11.11022192 256.77812542 11.14914879 254.55269955 11.16113281 252.328125 C11.16609772 251.63042496 11.17106262 250.93272491 11.17617798 250.21388245 C11.19084672 247.8925784 11.19761275 245.5713429 11.203125 243.25 C11.20887683 241.63631183 11.21463456 240.02262368 11.22039795 238.40893555 C11.2309242 235.01594728 11.23675482 231.62298278 11.24023438 228.22998047 C11.24569333 223.90032251 11.26965817 219.57098316 11.29820633 215.24142456 C11.31692288 211.90235512 11.32204329 208.56336061 11.32357025 205.22424316 C11.32658189 203.62958045 11.33455966 202.03491858 11.34775543 200.44030762 C11.43278397 189.36580522 11.04324278 179.83176966 3.80859375 170.79296875 C-2.46876296 164.56984406 -9.86360468 162.88959658 -18.4375 162.5625 C-25.36645868 162.59855077 -30.18446211 164.48263082 -36.3828125 167.40234375 C-58.87534259 177.33694937 -83.57453164 175.06311955 -106.10180664 166.77636719 C-108 166 -108 166 -111.09765625 164.33203125 C-122.20047552 159.23639011 -136.70866763 163.6183481 -145 172 Z " fill="#000000" transform="translate(265,52)"/>
<path d="M0 0 C11.64004299 10.82702465 18.86231785 25.53145213 19.80859375 41.41796875 C20.06033546 61.03284369 14.0170835 75.48601803 0.87890625 89.90234375 C-3.32642446 94.00578318 -8.14277596 96.66682525 -13.33203125 99.3203125 C-13.98816406 99.65820801 -14.64429688 99.99610352 -15.3203125 100.34423828 C-27.94723301 106.50485291 -45.41503348 107.62018949 -58.76171875 103.1015625 C-76.27294568 95.82686882 -89.33734751 85.4041107 -96.8046875 67.65625 C-102.47147145 51.28554081 -101.57296485 34.92892012 -95.1796875 18.9765625 C-87.9219094 4.33478408 -75.0101421 -6.57753243 -59.7421875 -11.98828125 C-38.48215056 -18.36381158 -17.0510674 -14.18604303 0 0 Z M-66.39453125 11.0078125 C-67.46703125 11.7709375 -68.53953125 12.5340625 -69.64453125 13.3203125 C-78.17533314 21.65723252 -83.36099319 33.06039314 -83.70703125 45.0078125 C-83.57990503 55.48866308 -79.95050316 64.90456741 -73.39453125 73.0078125 C-72.91628906 73.62140625 -72.43804687 74.235 -71.9453125 74.8671875 C-65.53826306 82.16186344 -54.56188668 87.58840483 -44.890625 88.24609375 C-30.39790859 88.64315447 -19.59810691 84.67763109 -8.70703125 74.8828125 C-0.51003723 66.28550017 3.11346993 54.52952202 2.85546875 42.87109375 C1.92806679 32.24944316 -2.53922511 21.41030651 -10.39453125 14.0078125 C-27.15974468 0.13315311 -48.35724549 -2.05251849 -66.39453125 11.0078125 Z " fill="#000000" transform="translate(235.39453125,90.9921875)"/>
</svg>
