<?xml version="1.0" encoding="UTF-8"?>
<!DOCTYPE svg PUBLIC "-//W3C//DTD SVG 1.1//EN" "http://www.w3.org/Graphics/SVG/1.1/DTD/svg11.dtd">
<svg xmlns="http://www.w3.org/2000/svg" version="1.1" width="512px" height="512px" style="shape-rendering:geometricPrecision; text-rendering:geometricPrecision; image-rendering:optimizeQuality; fill-rule:evenodd; clip-rule:evenodd" xmlns:xlink="http://www.w3.org/1999/xlink">
<g><path style="opacity:0.926" fill="#000000" d="M 174.5,-0.5 C 187.833,-0.5 201.167,-0.5 214.5,-0.5C 293.043,10.8759 347.543,53.2092 378,126.5C 400.318,192.907 391.318,254.573 351,311.5C 350.333,312.5 350.333,313.5 351,314.5C 362.167,325.667 373.333,336.833 384.5,348C 387.945,346.593 390.945,344.259 393.5,341C 396.964,340.183 400.298,340.517 403.5,342C 439.729,378.062 475.729,414.228 511.5,450.5C 511.5,453.167 511.5,455.833 511.5,458.5C 494.167,476.5 476.5,494.167 458.5,511.5C 455.833,511.5 453.167,511.5 450.5,511.5C 414.228,475.729 378.062,439.729 342,403.5C 340.517,400.298 340.183,396.964 341,393.5C 344.259,390.945 346.593,387.945 348,384.5C 336.833,373.333 325.667,362.167 314.5,351C 313.5,350.333 312.5,350.333 311.5,351C 262.988,385.971 209.322,397.304 150.5,385C 98.1971,371.669 57.3638,342.503 28,297.5C 12.5849,271.752 3.0849,244.085 -0.5,214.5C -0.5,201.167 -0.5,187.833 -0.5,174.5C 11.8075,92.065 57.1408,36.565 135.5,8C 148.404,4.07838 161.404,1.24504 174.5,-0.5 Z M 193.5,15.5 C 267.741,18.6771 321.908,53.0104 356,118.5C 384.789,187.198 376.455,250.864 331,309.5C 279.173,365.767 216.006,384.267 141.5,365C 83,345.167 43.8333,306 24,247.5C 4.01304,170.141 24.1797,105.641 84.5,54C 116.664,29.3342 152.998,16.5009 193.5,15.5 Z M 185.5,52.5 C 248.202,52.0817 294.035,79.4151 323,134.5C 347.426,195.028 337.426,249.028 293,296.5C 292.934,274.13 292.267,251.797 291,229.5C 286.167,214 276,203.833 260.5,199C 251.88,197.536 243.213,197.202 234.5,198C 215.209,208.995 194.876,211.661 173.5,206C 167.051,203.609 160.718,200.942 154.5,198C 134.804,194.343 118.304,199.843 105,214.5C 101.863,219.108 99.5297,224.108 98,229.5C 96.7326,251.797 96.0659,274.13 96,296.5C 51.5726,249.021 41.5726,195.021 66,134.5C 91.3027,86.0365 131.136,58.7032 185.5,52.5 Z M 192.5,92.5 C 212.772,93.3748 226.938,103.041 235,121.5C 241.364,150.275 230.531,169.109 202.5,178C 175.279,180.144 158.445,167.977 152,141.5C 150.672,120.313 159.505,105.146 178.5,96C 183.224,94.5058 187.891,93.3391 192.5,92.5 Z M 136.5,214.5 C 141.179,214.334 145.845,214.501 150.5,215C 179.833,230.333 209.167,230.333 238.5,215C 251.834,212.247 262.667,216.08 271,226.5C 273.184,229.866 274.517,233.533 275,237.5C 275.667,261.833 275.667,286.167 275,310.5C 238.721,335.297 199.221,342.131 156.5,331C 141.054,326.639 126.887,319.806 114,310.5C 113.333,285.833 113.333,261.167 114,236.5C 116.798,224.201 124.298,216.867 136.5,214.5 Z M 337.5,327.5 C 349.414,337.91 360.914,348.91 372,360.5C 372.667,361.167 372.667,361.833 372,362.5C 368.833,365.667 365.667,368.833 362.5,372C 361.833,372.667 361.167,372.667 360.5,372C 349.667,361.167 338.833,350.333 328,339.5C 327.333,338.833 327.333,338.167 328,337.5C 331.371,334.297 334.538,330.964 337.5,327.5 Z M 396.5,361.5 C 428.43,391.762 459.763,422.762 490.5,454.5C 478.833,466.833 466.833,478.833 454.5,490.5C 423.167,459.833 392.167,428.833 361.5,397.5C 373.188,385.479 384.855,373.479 396.5,361.5 Z"/></g>
<g><path style="opacity:0.933" fill="#000000" d="M 185.5,35.5 C 256.926,35.2742 308.426,66.9409 340,130.5C 363.838,191.975 355.172,248.308 314,299.5C 265.419,349.771 207.586,364.604 140.5,344C 74.1158,316.415 39.1158,266.582 35.5,194.5C 38.4691,127.017 70.1358,78.5168 130.5,49C 148.229,41.4838 166.562,36.9838 185.5,35.5 Z M 185.5,52.5 C 131.136,58.7032 91.3027,86.0365 66,134.5C 41.5726,195.021 51.5726,249.021 96,296.5C 96.0659,274.13 96.7326,251.797 98,229.5C 99.5297,224.108 101.863,219.108 105,214.5C 118.304,199.843 134.804,194.343 154.5,198C 160.718,200.942 167.051,203.609 173.5,206C 194.876,211.661 215.209,208.995 234.5,198C 243.213,197.202 251.88,197.536 260.5,199C 276,203.833 286.167,214 291,229.5C 292.267,251.797 292.934,274.13 293,296.5C 337.426,249.028 347.426,195.028 323,134.5C 294.035,79.4151 248.202,52.0817 185.5,52.5 Z M 192.5,92.5 C 187.891,93.3391 183.224,94.5058 178.5,96C 159.505,105.146 150.672,120.313 152,141.5C 158.445,167.977 175.279,180.144 202.5,178C 230.531,169.109 241.364,150.275 235,121.5C 226.938,103.041 212.772,93.3748 192.5,92.5 Z M 136.5,214.5 C 124.298,216.867 116.798,224.201 114,236.5C 113.333,261.167 113.333,285.833 114,310.5C 126.887,319.806 141.054,326.639 156.5,331C 199.221,342.131 238.721,335.297 275,310.5C 275.667,286.167 275.667,261.833 275,237.5C 274.517,233.533 273.184,229.866 271,226.5C 262.667,216.08 251.834,212.247 238.5,215C 209.167,230.333 179.833,230.333 150.5,215C 145.845,214.501 141.179,214.334 136.5,214.5 Z"/></g>
<g><path style="opacity:0.927" fill="#000000" d="M 191.5,75.5 C 226.285,76.7898 247.119,94.4565 254,128.5C 255.818,159.71 242.318,181.21 213.5,193C 183.067,200.529 159.233,191.362 142,165.5C 128.694,136.497 133.527,110.997 156.5,89C 166.991,81.2289 178.658,76.7289 191.5,75.5 Z M 192.5,92.5 C 187.891,93.3391 183.224,94.5058 178.5,96C 159.505,105.146 150.672,120.313 152,141.5C 158.445,167.977 175.279,180.144 202.5,178C 230.531,169.109 241.364,150.275 235,121.5C 226.938,103.041 212.772,93.3748 192.5,92.5 Z"/></g>
</svg>
